<?xml version="1.0" encoding="utf-8" standalone="no"?>
<!DOCTYPE svg PUBLIC "-//W3C//DTD SVG 1.1//EN"
  "http://www.w3.org/Graphics/SVG/1.1/DTD/svg11.dtd">
<svg xmlns:xlink="http://www.w3.org/1999/xlink" width="448pt" height="112pt" viewBox="0 0 448 112" xmlns="http://www.w3.org/2000/svg" version="1.1">
 <metadata>
  <rdf:RDF xmlns:dc="http://purl.org/dc/elements/1.1/" xmlns:cc="http://creativecommons.org/ns#" xmlns:rdf="http://www.w3.org/1999/02/22-rdf-syntax-ns#">
   <cc:Work>
    <dc:type rdf:resource="http://purl.org/dc/dcmitype/StillImage"/>
    <dc:date>2024-11-06T15:52:36.936035</dc:date>
    <dc:format>image/svg+xml</dc:format>
    <dc:creator>
     <cc:Agent>
      <dc:title>Matplotlib v3.9.2, https://matplotlib.org/</dc:title>
     </cc:Agent>
    </dc:creator>
   </cc:Work>
  </rdf:RDF>
 </metadata>
 <defs>
  <style type="text/css">*{stroke-linejoin: round; stroke-linecap: butt}</style>
 </defs>
 <g id="figure_1">
  <g id="patch_1">
   <path d="M 0 112 
L 448 112 
L 448 0 
L 0 0 
z
" style="fill: #ffffff"/>
  </g>
  <g id="axes_1">
   <g id="patch_2">
    <path d="M 12 14 
L 60 14 
L 60 32 
L 12 32 
z
" clip-path="url(#p0efdc39860)" style="fill: #00b1ff"/>
   </g>
   <g id="patch_3">
    <path d="M 12 36 
L 60 36 
L 60 54 
L 12 54 
z
" clip-path="url(#p0efdc39860)" style="fill: #ff00d9"/>
   </g>
   <g id="patch_4">
    <path d="M 12 58 
L 60 58 
L 60 76 
L 12 76 
z
" clip-path="url(#p0efdc39860)" style="fill: #ffbe0c"/>
   </g>
   <g id="patch_5">
    <path d="M 12 80 
L 60 80 
L 60 98 
L 12 98 
z
" clip-path="url(#p0efdc39860)" style="fill: #53585f"/>
   </g>
   <g id="patch_6">
    <path d="M 224 14 
L 272 14 
L 272 32 
L 224 32 
z
" clip-path="url(#p0efdc39860)" style="fill: #b3e2f7"/>
   </g>
   <g id="patch_7">
    <path d="M 224 36 
L 272 36 
L 272 54 
L 224 54 
z
" clip-path="url(#p0efdc39860)" style="fill: #ffcff8"/>
   </g>
   <g id="patch_8">
    <path d="M 224 58 
L 272 58 
L 272 76 
L 224 76 
z
" clip-path="url(#p0efdc39860)" style="fill: #ffe9ad"/>
   </g>
   <g id="patch_9">
    <path d="M 224 80 
L 272 80 
L 272 98 
L 224 98 
z
" clip-path="url(#p0efdc39860)" style="fill: #9e9e9e"/>
   </g>
   <g id="text_1">
    <!-- #00b1ff -->
    <g transform="translate(67 26.78) scale(0.14 -0.14)">
     <defs>
      <path id="Quicksand-Regular-23" d="M 915 0 
Q 819 0 764 77 
Q 710 154 723 262 
L 1421 4314 
Q 1440 4390 1491 4435 
Q 1542 4480 1613 4480 
Q 1715 4480 1769 4406 
Q 1824 4333 1805 4224 
L 1107 166 
Q 1101 90 1046 45 
Q 992 0 915 0 
z
M 614 2957 
Q 525 2957 464 3017 
Q 403 3078 403 3168 
Q 403 3251 464 3302 
Q 525 3354 614 3354 
L 3827 3354 
Q 3917 3354 3974 3293 
Q 4032 3232 4032 3142 
Q 4032 3059 3974 3008 
Q 3917 2957 3827 2957 
L 614 2957 
z
M 2573 0 
Q 2470 0 2416 77 
Q 2362 154 2381 262 
L 3078 4314 
Q 3091 4390 3142 4435 
Q 3194 4480 3270 4480 
Q 3373 4480 3427 4406 
Q 3482 4333 3462 4224 
L 2765 166 
Q 2752 90 2701 45 
Q 2650 0 2573 0 
z
M 358 1158 
Q 275 1158 214 1219 
Q 154 1280 154 1363 
Q 154 1446 214 1497 
Q 275 1549 358 1549 
L 3578 1549 
Q 3667 1549 3724 1491 
Q 3782 1434 3782 1344 
Q 3782 1261 3724 1209 
Q 3667 1158 3578 1158 
L 358 1158 
z
" transform="scale(0.015625)"/>
      <path id="Quicksand-Regular-30" d="M 1901 -64 
Q 1389 -64 1043 243 
Q 698 550 525 1072 
Q 352 1594 352 2240 
Q 352 2893 525 3414 
Q 698 3936 1043 4240 
Q 1389 4544 1901 4544 
Q 2426 4544 2768 4240 
Q 3110 3936 3283 3414 
Q 3456 2893 3456 2240 
Q 3456 1594 3283 1072 
Q 3110 550 2768 243 
Q 2426 -64 1901 -64 
z
M 1901 333 
Q 2278 333 2531 569 
Q 2784 806 2915 1238 
Q 3046 1670 3046 2240 
Q 3046 2816 2915 3248 
Q 2784 3680 2531 3917 
Q 2278 4154 1901 4154 
Q 1530 4154 1277 3917 
Q 1024 3680 893 3248 
Q 762 2816 762 2240 
Q 762 1670 893 1238 
Q 1024 806 1277 569 
Q 1530 333 1901 333 
z
" transform="scale(0.015625)"/>
      <path id="Quicksand-Regular-62" d="M 2061 3347 
Q 2496 3347 2832 3129 
Q 3168 2912 3366 2531 
Q 3565 2150 3565 1651 
Q 3565 1165 3366 774 
Q 3168 384 2829 160 
Q 2490 -64 2067 -64 
Q 1843 -64 1641 6 
Q 1440 77 1273 195 
Q 1107 314 979 474 
Q 851 634 774 819 
L 890 902 
L 890 179 
Q 890 96 835 41 
Q 781 -13 698 -13 
Q 614 -13 560 41 
Q 506 96 506 179 
L 506 4538 
Q 506 4621 557 4675 
Q 608 4730 698 4730 
Q 781 4730 835 4675 
Q 890 4621 890 4538 
L 890 2394 
L 800 2445 
Q 864 2643 989 2806 
Q 1114 2970 1280 3091 
Q 1446 3213 1644 3280 
Q 1843 3347 2061 3347 
z
M 2029 2989 
Q 1683 2989 1420 2816 
Q 1158 2643 1008 2342 
Q 858 2042 858 1651 
Q 858 1267 1008 956 
Q 1158 646 1420 470 
Q 1683 294 2029 294 
Q 2368 294 2627 473 
Q 2886 653 3040 963 
Q 3194 1274 3194 1651 
Q 3194 2042 3040 2342 
Q 2886 2643 2627 2816 
Q 2368 2989 2029 2989 
z
" transform="scale(0.015625)"/>
      <path id="Quicksand-Regular-31" d="M 1446 0 
Q 1357 0 1299 57 
Q 1242 115 1242 192 
L 1242 4045 
L 1312 3981 
L 461 3411 
Q 410 3373 352 3373 
Q 275 3373 214 3437 
Q 154 3501 154 3578 
Q 154 3680 256 3738 
L 1325 4448 
Q 1363 4474 1404 4480 
Q 1446 4486 1478 4480 
Q 1562 4474 1606 4419 
Q 1651 4365 1651 4288 
L 1651 192 
Q 1651 115 1593 57 
Q 1536 0 1446 0 
z
" transform="scale(0.015625)"/>
      <path id="Quicksand-Regular-66" d="M 1690 4710 
Q 1786 4710 1898 4691 
Q 2010 4672 2093 4624 
Q 2176 4576 2176 4480 
Q 2176 4410 2125 4355 
Q 2074 4301 2010 4301 
Q 1946 4301 1850 4336 
Q 1754 4371 1645 4371 
Q 1510 4371 1414 4310 
Q 1318 4250 1267 4138 
Q 1216 4026 1216 3866 
L 1216 192 
Q 1216 115 1161 57 
Q 1107 0 1024 0 
Q 941 0 886 57 
Q 832 115 832 192 
L 832 3866 
Q 832 4275 1072 4492 
Q 1312 4710 1690 4710 
z
M 1933 3206 
Q 2010 3206 2061 3155 
Q 2112 3104 2112 3027 
Q 2112 2950 2061 2899 
Q 2010 2848 1933 2848 
L 365 2848 
Q 294 2848 240 2902 
Q 186 2957 186 3027 
Q 186 3110 240 3158 
Q 294 3206 365 3206 
L 1933 3206 
z
" transform="scale(0.015625)"/>
     </defs>
     <use xlink:href="#Quicksand-Regular-23"/>
     <use xlink:href="#Quicksand-Regular-30" x="65.399994"/>
     <use xlink:href="#Quicksand-Regular-30" x="124.899979"/>
     <use xlink:href="#Quicksand-Regular-62" x="184.399963"/>
     <use xlink:href="#Quicksand-Regular-31" x="244.999954"/>
     <use xlink:href="#Quicksand-Regular-66" x="281.999939"/>
     <use xlink:href="#Quicksand-Regular-66" x="317.999924"/>
    </g>
   </g>
   <g id="text_2">
    <!-- #ff00d9 -->
    <g transform="translate(67 48.78) scale(0.14 -0.14)">
     <defs>
      <path id="Quicksand-Regular-64" d="M 3187 4736 
Q 3270 4736 3324 4681 
Q 3379 4627 3379 4544 
L 3379 192 
Q 3379 115 3321 57 
Q 3264 0 3187 0 
Q 3104 0 3049 57 
Q 2995 115 2995 192 
L 2995 954 
L 3104 1043 
Q 3104 864 3008 669 
Q 2912 474 2736 307 
Q 2560 141 2326 38 
Q 2093 -64 1824 -64 
Q 1395 -64 1052 160 
Q 710 384 512 768 
Q 314 1152 314 1645 
Q 314 2131 512 2518 
Q 710 2906 1049 3126 
Q 1389 3347 1818 3347 
Q 2080 3347 2317 3251 
Q 2554 3155 2736 2988 
Q 2918 2822 3024 2608 
Q 3130 2394 3130 2163 
L 2995 2259 
L 2995 4544 
Q 2995 4621 3049 4678 
Q 3104 4736 3187 4736 
z
M 1856 294 
Q 2202 294 2461 470 
Q 2720 646 2870 950 
Q 3021 1254 3021 1645 
Q 3021 2029 2870 2333 
Q 2720 2637 2457 2813 
Q 2195 2989 1856 2989 
Q 1523 2989 1257 2813 
Q 992 2637 841 2333 
Q 691 2029 691 1645 
Q 691 1261 841 953 
Q 992 646 1257 470 
Q 1523 294 1856 294 
z
" transform="scale(0.015625)"/>
      <path id="Quicksand-Regular-39" d="M 1773 4550 
Q 2150 4550 2428 4416 
Q 2707 4282 2886 4054 
Q 3066 3827 3155 3539 
Q 3245 3251 3245 2950 
Q 3245 2643 3165 2294 
Q 3085 1946 2928 1590 
Q 2771 1235 2537 915 
Q 2304 595 1990 339 
Q 1677 83 1293 -58 
Q 1242 -70 1210 -70 
Q 1133 -70 1072 -16 
Q 1011 38 1011 128 
Q 1011 192 1049 240 
Q 1088 288 1165 314 
Q 1530 467 1869 771 
Q 2208 1075 2454 1475 
Q 2701 1875 2784 2304 
L 2918 2387 
Q 2810 2182 2624 2016 
Q 2438 1850 2204 1757 
Q 1971 1664 1696 1664 
Q 1286 1664 988 1865 
Q 691 2067 531 2400 
Q 371 2733 371 3117 
Q 371 3494 553 3820 
Q 736 4147 1053 4348 
Q 1370 4550 1773 4550 
z
M 1786 4179 
Q 1485 4179 1254 4044 
Q 1024 3910 893 3670 
Q 762 3430 762 3117 
Q 762 2835 874 2585 
Q 986 2336 1210 2185 
Q 1434 2035 1754 2035 
Q 2099 2035 2342 2185 
Q 2586 2336 2720 2585 
Q 2854 2835 2854 3136 
Q 2854 3411 2726 3648 
Q 2598 3885 2361 4032 
Q 2125 4179 1786 4179 
z
" transform="scale(0.015625)"/>
     </defs>
     <use xlink:href="#Quicksand-Regular-23"/>
     <use xlink:href="#Quicksand-Regular-66" x="65.399994"/>
     <use xlink:href="#Quicksand-Regular-66" x="101.399979"/>
     <use xlink:href="#Quicksand-Regular-30" x="137.399963"/>
     <use xlink:href="#Quicksand-Regular-30" x="196.899948"/>
     <use xlink:href="#Quicksand-Regular-64" x="256.399933"/>
     <use xlink:href="#Quicksand-Regular-39" x="316.999924"/>
    </g>
   </g>
   <g id="text_3">
    <!-- #ffbe0c -->
    <g transform="translate(67 70.78) scale(0.14 -0.14)">
     <defs>
      <path id="Quicksand-Regular-65" d="M 1984 -64 
Q 1491 -64 1113 147 
Q 736 358 525 736 
Q 314 1114 314 1619 
Q 314 2163 528 2547 
Q 742 2931 1084 3139 
Q 1427 3347 1811 3347 
Q 2093 3347 2358 3248 
Q 2624 3149 2832 2953 
Q 3040 2758 3165 2476 
Q 3290 2195 3302 1824 
Q 3296 1747 3238 1692 
Q 3181 1638 3104 1638 
L 538 1638 
L 461 1984 
L 2982 1984 
L 2899 1907 
L 2899 2035 
Q 2874 2336 2707 2547 
Q 2541 2758 2304 2867 
Q 2067 2976 1811 2976 
Q 1619 2976 1417 2899 
Q 1216 2822 1053 2659 
Q 890 2496 787 2243 
Q 685 1990 685 1645 
Q 685 1267 838 960 
Q 992 653 1283 473 
Q 1574 294 1978 294 
Q 2202 294 2381 358 
Q 2560 422 2694 528 
Q 2829 634 2918 749 
Q 2989 806 3059 806 
Q 3123 806 3171 755 
Q 3219 704 3219 640 
Q 3219 563 3155 506 
Q 2963 275 2656 105 
Q 2349 -64 1984 -64 
z
" transform="scale(0.015625)"/>
      <path id="Quicksand-Regular-63" d="M 1946 3347 
Q 2253 3347 2509 3280 
Q 2765 3213 2921 3097 
Q 3078 2982 3078 2848 
Q 3078 2784 3033 2723 
Q 2989 2662 2912 2662 
Q 2835 2662 2787 2700 
Q 2739 2739 2691 2790 
Q 2643 2842 2554 2886 
Q 2470 2925 2316 2957 
Q 2163 2989 1965 2989 
Q 1606 2989 1318 2809 
Q 1030 2630 864 2326 
Q 698 2022 698 1645 
Q 698 1261 858 953 
Q 1018 646 1299 470 
Q 1581 294 1958 294 
Q 2214 294 2355 339 
Q 2496 384 2598 442 
Q 2720 512 2774 579 
Q 2829 646 2918 646 
Q 3002 646 3043 598 
Q 3085 550 3085 474 
Q 3085 371 2934 246 
Q 2784 122 2521 29 
Q 2259 -64 1920 -64 
Q 1440 -64 1078 160 
Q 717 384 515 771 
Q 314 1158 314 1645 
Q 314 2112 518 2496 
Q 723 2880 1091 3113 
Q 1459 3347 1946 3347 
z
" transform="scale(0.015625)"/>
     </defs>
     <use xlink:href="#Quicksand-Regular-23"/>
     <use xlink:href="#Quicksand-Regular-66" x="65.399994"/>
     <use xlink:href="#Quicksand-Regular-66" x="101.399979"/>
     <use xlink:href="#Quicksand-Regular-62" x="137.399963"/>
     <use xlink:href="#Quicksand-Regular-65" x="197.999954"/>
     <use xlink:href="#Quicksand-Regular-30" x="254.499939"/>
     <use xlink:href="#Quicksand-Regular-63" x="313.999924"/>
    </g>
   </g>
   <g id="text_4">
    <!-- #53585f -->
    <g transform="translate(67 92.78) scale(0.14 -0.14)">
     <defs>
      <path id="Quicksand-Regular-35" d="M 1498 -13 
Q 1235 -13 969 73 
Q 704 160 499 333 
Q 461 365 438 409 
Q 416 454 416 499 
Q 416 563 467 624 
Q 518 685 602 685 
Q 672 685 742 627 
Q 909 499 1104 428 
Q 1299 358 1498 358 
Q 1875 358 2156 502 
Q 2438 646 2592 912 
Q 2746 1178 2746 1530 
Q 2746 1856 2605 2096 
Q 2464 2336 2205 2473 
Q 1946 2611 1594 2611 
Q 1363 2611 1174 2540 
Q 986 2470 848 2396 
Q 710 2323 627 2323 
Q 550 2323 502 2361 
Q 454 2400 438 2457 
Q 422 2515 435 2579 
L 710 4288 
Q 717 4346 771 4394 
Q 826 4442 909 4442 
L 2835 4442 
Q 2912 4442 2966 4387 
Q 3021 4333 3021 4256 
Q 3021 4173 2966 4118 
Q 2912 4064 2835 4064 
L 998 4064 
L 1056 4122 
L 794 2605 
L 678 2688 
Q 762 2752 918 2816 
Q 1075 2880 1270 2928 
Q 1466 2976 1683 2976 
Q 2099 2976 2425 2793 
Q 2752 2611 2941 2288 
Q 3130 1965 3130 1542 
Q 3130 1075 2928 726 
Q 2726 378 2361 182 
Q 1997 -13 1498 -13 
z
" transform="scale(0.015625)"/>
      <path id="Quicksand-Regular-33" d="M 570 659 
Q 602 659 637 646 
Q 672 634 723 589 
Q 858 448 1043 374 
Q 1229 301 1466 301 
Q 1779 301 2038 441 
Q 2298 582 2451 835 
Q 2605 1088 2605 1414 
Q 2605 1786 2441 2013 
Q 2278 2240 2025 2352 
Q 1773 2464 1510 2464 
Q 1440 2464 1373 2454 
Q 1306 2445 1248 2432 
Q 1190 2419 1158 2419 
Q 1075 2419 1030 2473 
Q 986 2528 986 2611 
Q 986 2656 1005 2691 
Q 1024 2726 1056 2771 
L 2355 4186 
L 2432 4083 
L 493 4083 
Q 416 4083 361 4137 
Q 307 4192 307 4269 
Q 307 4346 361 4397 
Q 416 4448 493 4448 
L 2643 4448 
Q 2752 4448 2797 4381 
Q 2842 4314 2842 4250 
Q 2842 4211 2822 4176 
Q 2803 4141 2771 4102 
L 1472 2688 
L 1331 2771 
Q 1350 2790 1462 2812 
Q 1574 2835 1638 2835 
Q 1990 2835 2300 2668 
Q 2611 2502 2806 2192 
Q 3002 1882 3002 1427 
Q 3002 979 2790 643 
Q 2579 307 2220 121 
Q 1862 -64 1427 -64 
Q 1165 -64 909 25 
Q 653 115 461 294 
Q 416 333 397 371 
Q 378 410 378 448 
Q 378 525 432 592 
Q 486 659 570 659 
z
" transform="scale(0.015625)"/>
      <path id="Quicksand-Regular-38" d="M 2330 2253 
L 2310 2310 
Q 2528 2227 2707 2064 
Q 2886 1901 2995 1680 
Q 3104 1459 3104 1197 
Q 3104 851 2921 569 
Q 2739 288 2425 121 
Q 2112 -45 1728 -45 
Q 1338 -45 1027 121 
Q 717 288 534 569 
Q 352 851 352 1197 
Q 352 1478 464 1699 
Q 576 1920 758 2073 
Q 941 2227 1139 2310 
L 1120 2246 
Q 947 2330 796 2474 
Q 646 2618 550 2819 
Q 454 3021 454 3264 
Q 454 3610 624 3885 
Q 794 4160 1085 4320 
Q 1376 4480 1728 4480 
Q 2080 4480 2365 4320 
Q 2650 4160 2819 3885 
Q 2989 3610 2989 3264 
Q 2989 3014 2893 2816 
Q 2797 2618 2643 2474 
Q 2490 2330 2330 2253 
z
M 851 3264 
Q 851 3008 972 2816 
Q 1094 2624 1292 2515 
Q 1491 2406 1728 2406 
Q 1958 2406 2156 2515 
Q 2355 2624 2473 2816 
Q 2592 3008 2592 3264 
Q 2592 3642 2349 3878 
Q 2106 4115 1728 4115 
Q 1338 4115 1094 3878 
Q 851 3642 851 3264 
z
M 1728 320 
Q 2163 320 2435 569 
Q 2707 819 2707 1197 
Q 2707 1453 2572 1657 
Q 2438 1862 2214 1977 
Q 1990 2093 1728 2093 
Q 1466 2093 1242 1977 
Q 1018 1862 883 1657 
Q 749 1453 749 1197 
Q 749 819 1017 569 
Q 1286 320 1728 320 
z
" transform="scale(0.015625)"/>
     </defs>
     <use xlink:href="#Quicksand-Regular-23"/>
     <use xlink:href="#Quicksand-Regular-35" x="65.399994"/>
     <use xlink:href="#Quicksand-Regular-33" x="119.899979"/>
     <use xlink:href="#Quicksand-Regular-35" x="172.299973"/>
     <use xlink:href="#Quicksand-Regular-38" x="226.799957"/>
     <use xlink:href="#Quicksand-Regular-35" x="280.799942"/>
     <use xlink:href="#Quicksand-Regular-66" x="335.299927"/>
    </g>
   </g>
   <g id="text_5">
    <!-- #b3e2f7 -->
    <g transform="translate(279 26.78) scale(0.14 -0.14)">
     <defs>
      <path id="Quicksand-Regular-32" d="M 3034 371 
Q 3110 371 3164 316 
Q 3219 262 3219 186 
Q 3219 102 3164 51 
Q 3110 0 3034 0 
L 634 0 
Q 550 0 489 48 
Q 429 96 429 192 
Q 429 262 480 326 
L 1958 1958 
Q 2310 2342 2486 2665 
Q 2662 2989 2662 3245 
Q 2662 3667 2406 3923 
Q 2150 4179 1715 4179 
Q 1517 4179 1321 4096 
Q 1126 4013 976 3878 
Q 826 3744 742 3571 
Q 704 3507 662 3481 
Q 621 3456 570 3456 
Q 493 3456 435 3504 
Q 378 3552 378 3622 
Q 378 3667 400 3712 
Q 422 3757 467 3814 
Q 582 4013 787 4179 
Q 992 4346 1245 4445 
Q 1498 4544 1741 4544 
Q 2150 4544 2448 4387 
Q 2746 4230 2909 3945 
Q 3072 3661 3072 3270 
Q 3072 2938 2864 2544 
Q 2656 2150 2246 1696 
L 998 294 
L 934 371 
L 3034 371 
z
" transform="scale(0.015625)"/>
      <path id="Quicksand-Regular-37" d="M 1139 -19 
Q 1062 -19 998 32 
Q 934 83 934 160 
Q 934 205 954 256 
L 2656 4166 
L 2726 4077 
L 563 4077 
Q 486 4077 432 4131 
Q 378 4186 378 4262 
Q 378 4346 432 4397 
Q 486 4448 563 4448 
L 2912 4448 
Q 3008 4448 3053 4397 
Q 3098 4346 3098 4269 
Q 3098 4218 3078 4173 
L 1318 109 
Q 1299 51 1248 16 
Q 1197 -19 1139 -19 
z
" transform="scale(0.015625)"/>
     </defs>
     <use xlink:href="#Quicksand-Regular-23"/>
     <use xlink:href="#Quicksand-Regular-62" x="65.399994"/>
     <use xlink:href="#Quicksand-Regular-33" x="125.999985"/>
     <use xlink:href="#Quicksand-Regular-65" x="178.399979"/>
     <use xlink:href="#Quicksand-Regular-32" x="234.899963"/>
     <use xlink:href="#Quicksand-Regular-66" x="290.299957"/>
     <use xlink:href="#Quicksand-Regular-37" x="326.299942"/>
    </g>
   </g>
   <g id="text_6">
    <!-- #ffcff8 -->
    <g transform="translate(279 48.78) scale(0.14 -0.14)">
     <use xlink:href="#Quicksand-Regular-23"/>
     <use xlink:href="#Quicksand-Regular-66" x="65.399994"/>
     <use xlink:href="#Quicksand-Regular-66" x="101.399979"/>
     <use xlink:href="#Quicksand-Regular-63" x="137.399963"/>
     <use xlink:href="#Quicksand-Regular-66" x="189.199951"/>
     <use xlink:href="#Quicksand-Regular-66" x="225.199936"/>
     <use xlink:href="#Quicksand-Regular-38" x="261.199921"/>
    </g>
   </g>
   <g id="text_7">
    <!-- #ffe9ad -->
    <g transform="translate(279 70.78) scale(0.14 -0.14)">
     <defs>
      <path id="Quicksand-Regular-61" d="M 3187 3270 
Q 3270 3270 3324 3212 
Q 3379 3155 3379 3072 
L 3379 192 
Q 3379 115 3321 57 
Q 3264 0 3187 0 
Q 3104 0 3049 57 
Q 2995 115 2995 192 
L 2995 954 
L 3104 1005 
Q 3104 826 3005 640 
Q 2906 454 2733 294 
Q 2560 134 2326 35 
Q 2093 -64 1824 -64 
Q 1389 -64 1046 160 
Q 704 384 509 774 
Q 314 1165 314 1651 
Q 314 2150 512 2531 
Q 710 2912 1049 3129 
Q 1389 3347 1818 3347 
Q 2093 3347 2333 3251 
Q 2573 3155 2752 2988 
Q 2931 2822 3030 2608 
Q 3130 2394 3130 2163 
L 2995 2259 
L 2995 3072 
Q 2995 3155 3049 3212 
Q 3104 3270 3187 3270 
z
M 1856 294 
Q 2195 294 2457 470 
Q 2720 646 2870 956 
Q 3021 1267 3021 1651 
Q 3021 2029 2870 2329 
Q 2720 2630 2457 2809 
Q 2195 2989 1856 2989 
Q 1523 2989 1257 2816 
Q 992 2643 841 2342 
Q 691 2042 691 1651 
Q 691 1267 841 956 
Q 992 646 1254 470 
Q 1517 294 1856 294 
z
" transform="scale(0.015625)"/>
     </defs>
     <use xlink:href="#Quicksand-Regular-23"/>
     <use xlink:href="#Quicksand-Regular-66" x="65.399994"/>
     <use xlink:href="#Quicksand-Regular-66" x="101.399979"/>
     <use xlink:href="#Quicksand-Regular-65" x="137.399963"/>
     <use xlink:href="#Quicksand-Regular-39" x="193.899948"/>
     <use xlink:href="#Quicksand-Regular-61" x="249.699936"/>
     <use xlink:href="#Quicksand-Regular-64" x="310.299927"/>
    </g>
   </g>
   <g id="text_8">
    <!-- #9e9e9e -->
    <g transform="translate(279 92.78) scale(0.14 -0.14)">
     <use xlink:href="#Quicksand-Regular-23"/>
     <use xlink:href="#Quicksand-Regular-39" x="65.399994"/>
     <use xlink:href="#Quicksand-Regular-65" x="121.199982"/>
     <use xlink:href="#Quicksand-Regular-39" x="177.699966"/>
     <use xlink:href="#Quicksand-Regular-65" x="233.499954"/>
     <use xlink:href="#Quicksand-Regular-39" x="289.999939"/>
     <use xlink:href="#Quicksand-Regular-65" x="345.799927"/>
    </g>
   </g>
  </g>
 </g>
 <defs>
  <clipPath id="p0efdc39860">
   <rect x="12" y="12" width="424" height="88"/>
  </clipPath>
 </defs>
</svg>
