<?xml version="1.0" encoding="utf-8" standalone="no"?>
<!DOCTYPE svg PUBLIC "-//W3C//DTD SVG 1.1//EN"
  "http://www.w3.org/Graphics/SVG/1.1/DTD/svg11.dtd">
<svg xmlns:xlink="http://www.w3.org/1999/xlink" width="460.8pt" height="460.8pt" viewBox="0 0 460.8 460.8" xmlns="http://www.w3.org/2000/svg" version="1.1">
 <metadata>
  <rdf:RDF xmlns:dc="http://purl.org/dc/elements/1.1/" xmlns:cc="http://creativecommons.org/ns#" xmlns:rdf="http://www.w3.org/1999/02/22-rdf-syntax-ns#">
   <cc:Work>
    <dc:type rdf:resource="http://purl.org/dc/dcmitype/StillImage"/>
    <dc:date>2024-11-06T21:39:59.020467</dc:date>
    <dc:format>image/svg+xml</dc:format>
    <dc:creator>
     <cc:Agent>
      <dc:title>Matplotlib v3.9.2, https://matplotlib.org/</dc:title>
     </cc:Agent>
    </dc:creator>
   </cc:Work>
  </rdf:RDF>
 </metadata>
 <defs>
  <style type="text/css">*{stroke-linejoin: round; stroke-linecap: butt}</style>
 </defs>
 <g id="figure_1">
  <g id="patch_1">
   <path d="M 0 460.8 
L 460.8 460.8 
L 460.8 0 
L 0 0 
z
" style="fill: #ffffff"/>
  </g>
  <g id="axes_1">
   <g id="patch_2">
    <path d="M 55.28 296.385 
L 445.68 296.385 
L 445.68 15.12 
L 55.28 15.12 
z
" style="fill: #ffffff"/>
   </g>
   <g id="matplotlib.axis_1">
    <g id="xtick_1">
     <g id="line2d_1">
      <defs>
       <path id="m4fb533bd4d" d="M 0 0 
L 0 3.5 
" style="stroke: #000000; stroke-width: 0.8"/>
      </defs>
      <g>
       <use xlink:href="#m4fb533bd4d" x="65.782412" y="296.385" style="stroke: #000000; stroke-width: 0.8"/>
      </g>
     </g>
    </g>
    <g id="xtick_2">
     <g id="line2d_2">
      <g>
       <use xlink:href="#m4fb533bd4d" x="101.997625" y="296.385" style="stroke: #000000; stroke-width: 0.8"/>
      </g>
     </g>
    </g>
    <g id="xtick_3">
     <g id="line2d_3">
      <g>
       <use xlink:href="#m4fb533bd4d" x="138.212839" y="296.385" style="stroke: #000000; stroke-width: 0.8"/>
      </g>
     </g>
    </g>
    <g id="xtick_4">
     <g id="line2d_4">
      <g>
       <use xlink:href="#m4fb533bd4d" x="174.428052" y="296.385" style="stroke: #000000; stroke-width: 0.8"/>
      </g>
     </g>
    </g>
    <g id="xtick_5">
     <g id="line2d_5">
      <g>
       <use xlink:href="#m4fb533bd4d" x="210.643265" y="296.385" style="stroke: #000000; stroke-width: 0.8"/>
      </g>
     </g>
    </g>
    <g id="xtick_6">
     <g id="line2d_6">
      <g>
       <use xlink:href="#m4fb533bd4d" x="246.858479" y="296.385" style="stroke: #000000; stroke-width: 0.8"/>
      </g>
     </g>
    </g>
    <g id="xtick_7">
     <g id="line2d_7">
      <g>
       <use xlink:href="#m4fb533bd4d" x="283.073692" y="296.385" style="stroke: #000000; stroke-width: 0.8"/>
      </g>
     </g>
    </g>
    <g id="xtick_8">
     <g id="line2d_8">
      <g>
       <use xlink:href="#m4fb533bd4d" x="319.288905" y="296.385" style="stroke: #000000; stroke-width: 0.8"/>
      </g>
     </g>
    </g>
    <g id="xtick_9">
     <g id="line2d_9">
      <g>
       <use xlink:href="#m4fb533bd4d" x="355.504119" y="296.385" style="stroke: #000000; stroke-width: 0.8"/>
      </g>
     </g>
    </g>
    <g id="xtick_10">
     <g id="line2d_10">
      <g>
       <use xlink:href="#m4fb533bd4d" x="391.719332" y="296.385" style="stroke: #000000; stroke-width: 0.8"/>
      </g>
     </g>
    </g>
    <g id="xtick_11">
     <g id="line2d_11">
      <g>
       <use xlink:href="#m4fb533bd4d" x="427.934545" y="296.385" style="stroke: #000000; stroke-width: 0.8"/>
      </g>
     </g>
    </g>
   </g>
   <g id="matplotlib.axis_2">
    <g id="ytick_1">
     <g id="line2d_12">
      <defs>
       <path id="m41e3134f19" d="M 0 0 
L -3.5 0 
" style="stroke: #000000; stroke-width: 0.8"/>
      </defs>
      <g>
       <use xlink:href="#m41e3134f19" x="55.28" y="287.761821" style="stroke: #000000; stroke-width: 0.8"/>
      </g>
     </g>
     <g id="text_1">
      <!-- 0 -->
      <g transform="translate(39.95 292.941821) scale(0.14 -0.14)">
       <defs>
        <path id="Quicksand-Regular-30" d="M 1901 -64 
Q 1389 -64 1043 243 
Q 698 550 525 1072 
Q 352 1594 352 2240 
Q 352 2893 525 3414 
Q 698 3936 1043 4240 
Q 1389 4544 1901 4544 
Q 2426 4544 2768 4240 
Q 3110 3936 3283 3414 
Q 3456 2893 3456 2240 
Q 3456 1594 3283 1072 
Q 3110 550 2768 243 
Q 2426 -64 1901 -64 
z
M 1901 333 
Q 2278 333 2531 569 
Q 2784 806 2915 1238 
Q 3046 1670 3046 2240 
Q 3046 2816 2915 3248 
Q 2784 3680 2531 3917 
Q 2278 4154 1901 4154 
Q 1530 4154 1277 3917 
Q 1024 3680 893 3248 
Q 762 2816 762 2240 
Q 762 1670 893 1238 
Q 1024 806 1277 569 
Q 1530 333 1901 333 
z
" transform="scale(0.015625)"/>
       </defs>
       <use xlink:href="#Quicksand-Regular-30"/>
      </g>
     </g>
    </g>
    <g id="ytick_2">
     <g id="line2d_13">
      <g>
       <use xlink:href="#m41e3134f19" x="55.28" y="228.473486" style="stroke: #000000; stroke-width: 0.8"/>
      </g>
     </g>
     <g id="text_2">
      <!-- 2 -->
      <g transform="translate(40.523125 233.653486) scale(0.14 -0.14)">
       <defs>
        <path id="Quicksand-Regular-32" d="M 3034 371 
Q 3110 371 3164 316 
Q 3219 262 3219 186 
Q 3219 102 3164 51 
Q 3110 0 3034 0 
L 634 0 
Q 550 0 489 48 
Q 429 96 429 192 
Q 429 262 480 326 
L 1958 1958 
Q 2310 2342 2486 2665 
Q 2662 2989 2662 3245 
Q 2662 3667 2406 3923 
Q 2150 4179 1715 4179 
Q 1517 4179 1321 4096 
Q 1126 4013 976 3878 
Q 826 3744 742 3571 
Q 704 3507 662 3481 
Q 621 3456 570 3456 
Q 493 3456 435 3504 
Q 378 3552 378 3622 
Q 378 3667 400 3712 
Q 422 3757 467 3814 
Q 582 4013 787 4179 
Q 992 4346 1245 4445 
Q 1498 4544 1741 4544 
Q 2150 4544 2448 4387 
Q 2746 4230 2909 3945 
Q 3072 3661 3072 3270 
Q 3072 2938 2864 2544 
Q 2656 2150 2246 1696 
L 998 294 
L 934 371 
L 3034 371 
z
" transform="scale(0.015625)"/>
       </defs>
       <use xlink:href="#Quicksand-Regular-32"/>
      </g>
     </g>
    </g>
    <g id="ytick_3">
     <g id="line2d_14">
      <g>
       <use xlink:href="#m41e3134f19" x="55.28" y="169.185151" style="stroke: #000000; stroke-width: 0.8"/>
      </g>
     </g>
     <g id="text_3">
      <!-- 4 -->
      <g transform="translate(40.901563 174.365151) scale(0.14 -0.14)">
       <defs>
        <path id="Quicksand-Regular-34" d="M 2349 0 
Q 2266 0 2214 57 
Q 2163 115 2163 192 
L 2163 3949 
L 2246 3898 
L 563 1670 
L 544 1741 
L 3002 1741 
Q 3078 1741 3132 1689 
Q 3187 1638 3187 1562 
Q 3187 1485 3132 1433 
Q 3078 1382 3002 1382 
L 282 1382 
Q 205 1382 147 1443 
Q 90 1504 90 1581 
Q 90 1651 134 1709 
L 2195 4403 
Q 2227 4448 2275 4464 
Q 2323 4480 2355 4480 
Q 2438 4480 2492 4422 
Q 2547 4365 2547 4288 
L 2547 192 
Q 2547 115 2489 57 
Q 2432 0 2349 0 
z
" transform="scale(0.015625)"/>
       </defs>
       <use xlink:href="#Quicksand-Regular-34"/>
      </g>
     </g>
    </g>
    <g id="ytick_4">
     <g id="line2d_15">
      <g>
       <use xlink:href="#m41e3134f19" x="55.28" y="109.896816" style="stroke: #000000; stroke-width: 0.8"/>
      </g>
     </g>
     <g id="text_4">
      <!-- 6 -->
      <g transform="translate(40.748438 115.076816) scale(0.14 -0.14)">
       <defs>
        <path id="Quicksand-Regular-36" d="M 1837 -64 
Q 1466 -64 1187 70 
Q 909 205 726 432 
Q 544 659 457 947 
Q 371 1235 371 1536 
Q 371 1843 448 2198 
Q 525 2554 685 2918 
Q 845 3283 1078 3609 
Q 1312 3936 1622 4195 
Q 1933 4454 2323 4602 
Q 2368 4614 2400 4614 
Q 2483 4614 2544 4569 
Q 2605 4525 2605 4416 
Q 2605 4352 2563 4304 
Q 2522 4256 2451 4230 
Q 2182 4115 1920 3904 
Q 1658 3693 1434 3417 
Q 1210 3142 1053 2825 
Q 896 2509 832 2182 
L 691 2099 
Q 806 2310 988 2473 
Q 1171 2637 1408 2736 
Q 1645 2835 1920 2835 
Q 2208 2835 2451 2713 
Q 2694 2592 2870 2384 
Q 3046 2176 3145 1913 
Q 3245 1651 3245 1370 
Q 3245 992 3062 665 
Q 2880 339 2563 137 
Q 2246 -64 1837 -64 
z
M 1830 307 
Q 2125 307 2355 441 
Q 2586 576 2717 816 
Q 2848 1056 2848 1370 
Q 2848 1658 2736 1904 
Q 2624 2150 2403 2307 
Q 2182 2464 1856 2464 
Q 1517 2464 1270 2310 
Q 1024 2157 893 1904 
Q 762 1651 762 1350 
Q 762 1082 890 842 
Q 1018 602 1258 454 
Q 1498 307 1830 307 
z
" transform="scale(0.015625)"/>
       </defs>
       <use xlink:href="#Quicksand-Regular-36"/>
      </g>
     </g>
    </g>
    <g id="ytick_5">
     <g id="line2d_16">
      <g>
       <use xlink:href="#m41e3134f19" x="55.28" y="50.608481" style="stroke: #000000; stroke-width: 0.8"/>
      </g>
     </g>
     <g id="text_5">
      <!-- 8 -->
      <g transform="translate(40.72 55.788481) scale(0.14 -0.14)">
       <defs>
        <path id="Quicksand-Regular-38" d="M 2330 2253 
L 2310 2310 
Q 2528 2227 2707 2064 
Q 2886 1901 2995 1680 
Q 3104 1459 3104 1197 
Q 3104 851 2921 569 
Q 2739 288 2425 121 
Q 2112 -45 1728 -45 
Q 1338 -45 1027 121 
Q 717 288 534 569 
Q 352 851 352 1197 
Q 352 1478 464 1699 
Q 576 1920 758 2073 
Q 941 2227 1139 2310 
L 1120 2246 
Q 947 2330 796 2474 
Q 646 2618 550 2819 
Q 454 3021 454 3264 
Q 454 3610 624 3885 
Q 794 4160 1085 4320 
Q 1376 4480 1728 4480 
Q 2080 4480 2365 4320 
Q 2650 4160 2819 3885 
Q 2989 3610 2989 3264 
Q 2989 3014 2893 2816 
Q 2797 2618 2643 2474 
Q 2490 2330 2330 2253 
z
M 851 3264 
Q 851 3008 972 2816 
Q 1094 2624 1292 2515 
Q 1491 2406 1728 2406 
Q 1958 2406 2156 2515 
Q 2355 2624 2473 2816 
Q 2592 3008 2592 3264 
Q 2592 3642 2349 3878 
Q 2106 4115 1728 4115 
Q 1338 4115 1094 3878 
Q 851 3642 851 3264 
z
M 1728 320 
Q 2163 320 2435 569 
Q 2707 819 2707 1197 
Q 2707 1453 2572 1657 
Q 2438 1862 2214 1977 
Q 1990 2093 1728 2093 
Q 1466 2093 1242 1977 
Q 1018 1862 883 1657 
Q 749 1453 749 1197 
Q 749 819 1017 569 
Q 1286 320 1728 320 
z
" transform="scale(0.015625)"/>
       </defs>
       <use xlink:href="#Quicksand-Regular-38"/>
      </g>
     </g>
    </g>
    <g id="text_6">
     <!-- Total Runtime [s] -->
     <g transform="translate(33.15 212.028125) rotate(-90) scale(0.14 -0.14)">
      <defs>
       <path id="Quicksand-Regular-54" d="M 1933 0 
Q 1843 0 1788 57 
Q 1734 115 1734 192 
L 1734 4269 
L 2131 4269 
L 2131 192 
Q 2131 115 2073 57 
Q 2016 0 1933 0 
z
M 410 4115 
Q 333 4115 275 4166 
Q 218 4218 218 4301 
Q 218 4378 275 4429 
Q 333 4480 410 4480 
L 3456 4480 
Q 3533 4480 3590 4429 
Q 3648 4378 3648 4294 
Q 3648 4211 3590 4163 
Q 3533 4115 3456 4115 
L 410 4115 
z
" transform="scale(0.015625)"/>
       <path id="Quicksand-Regular-6f" d="M 3552 1638 
Q 3552 1152 3341 765 
Q 3130 378 2765 157 
Q 2400 -64 1933 -64 
Q 1478 -64 1110 157 
Q 742 378 528 765 
Q 314 1152 314 1638 
Q 314 2131 528 2515 
Q 742 2899 1110 3123 
Q 1478 3347 1933 3347 
Q 2400 3347 2765 3123 
Q 3130 2899 3341 2515 
Q 3552 2131 3552 1638 
z
M 3168 1638 
Q 3168 2029 3008 2333 
Q 2848 2637 2569 2813 
Q 2291 2989 1933 2989 
Q 1587 2989 1305 2813 
Q 1024 2637 861 2333 
Q 698 2029 698 1638 
Q 698 1248 861 947 
Q 1024 646 1305 470 
Q 1587 294 1933 294 
Q 2291 294 2569 470 
Q 2848 646 3008 947 
Q 3168 1248 3168 1638 
z
" transform="scale(0.015625)"/>
       <path id="Quicksand-Regular-74" d="M 294 3258 
L 1786 3258 
Q 1862 3258 1913 3203 
Q 1965 3149 1965 3072 
Q 1965 3002 1913 2950 
Q 1862 2899 1786 2899 
L 294 2899 
Q 218 2899 163 2953 
Q 109 3008 109 3078 
Q 109 3155 163 3206 
Q 218 3258 294 3258 
z
M 954 4160 
Q 1037 4160 1091 4102 
Q 1146 4045 1146 3968 
L 1146 755 
Q 1146 576 1194 486 
Q 1242 397 1318 368 
Q 1395 339 1472 339 
Q 1523 339 1564 355 
Q 1606 371 1658 371 
Q 1715 371 1756 326 
Q 1798 282 1798 211 
Q 1798 122 1696 61 
Q 1594 0 1453 0 
Q 1395 0 1280 9 
Q 1165 19 1043 80 
Q 922 141 842 294 
Q 762 448 762 736 
L 762 3968 
Q 762 4045 816 4102 
Q 870 4160 954 4160 
z
" transform="scale(0.015625)"/>
       <path id="Quicksand-Regular-61" d="M 3187 3270 
Q 3270 3270 3324 3212 
Q 3379 3155 3379 3072 
L 3379 192 
Q 3379 115 3321 57 
Q 3264 0 3187 0 
Q 3104 0 3049 57 
Q 2995 115 2995 192 
L 2995 954 
L 3104 1005 
Q 3104 826 3005 640 
Q 2906 454 2733 294 
Q 2560 134 2326 35 
Q 2093 -64 1824 -64 
Q 1389 -64 1046 160 
Q 704 384 509 774 
Q 314 1165 314 1651 
Q 314 2150 512 2531 
Q 710 2912 1049 3129 
Q 1389 3347 1818 3347 
Q 2093 3347 2333 3251 
Q 2573 3155 2752 2988 
Q 2931 2822 3030 2608 
Q 3130 2394 3130 2163 
L 2995 2259 
L 2995 3072 
Q 2995 3155 3049 3212 
Q 3104 3270 3187 3270 
z
M 1856 294 
Q 2195 294 2457 470 
Q 2720 646 2870 956 
Q 3021 1267 3021 1651 
Q 3021 2029 2870 2329 
Q 2720 2630 2457 2809 
Q 2195 2989 1856 2989 
Q 1523 2989 1257 2816 
Q 992 2643 841 2342 
Q 691 2042 691 1651 
Q 691 1267 841 956 
Q 992 646 1254 470 
Q 1517 294 1856 294 
z
" transform="scale(0.015625)"/>
       <path id="Quicksand-Regular-6c" d="M 928 192 
Q 928 115 870 57 
Q 813 0 736 0 
Q 653 0 598 57 
Q 544 115 544 192 
L 544 4544 
Q 544 4621 601 4678 
Q 659 4736 736 4736 
Q 819 4736 873 4678 
Q 928 4621 928 4544 
L 928 192 
z
" transform="scale(0.015625)"/>
       <path id="Quicksand-Regular-20" transform="scale(0.015625)"/>
       <path id="Quicksand-Regular-52" d="M 819 0 
Q 723 0 662 57 
Q 602 115 602 192 
L 602 4288 
Q 602 4365 659 4422 
Q 717 4480 794 4480 
L 2522 4480 
Q 2886 4480 3174 4323 
Q 3462 4166 3625 3891 
Q 3789 3616 3789 3270 
Q 3789 2989 3686 2752 
Q 3584 2515 3398 2352 
Q 3213 2189 2982 2112 
L 2758 2182 
Q 2995 2163 3200 2032 
Q 3405 1901 3529 1673 
Q 3654 1446 3661 1126 
Q 3667 851 3689 697 
Q 3712 544 3757 467 
Q 3802 390 3872 346 
Q 3936 307 3958 236 
Q 3981 166 3942 102 
Q 3917 51 3869 28 
Q 3821 6 3769 6 
Q 3718 6 3667 32 
Q 3578 83 3485 192 
Q 3392 301 3331 512 
Q 3270 723 3270 1101 
Q 3270 1350 3190 1510 
Q 3110 1670 2985 1756 
Q 2861 1843 2710 1878 
Q 2560 1914 2426 1914 
L 934 1914 
L 1005 2003 
L 1005 192 
Q 1005 115 953 57 
Q 902 0 819 0 
z
M 934 2266 
L 2541 2266 
Q 2758 2285 2950 2409 
Q 3142 2534 3260 2752 
Q 3379 2970 3379 3258 
Q 3379 3622 3132 3862 
Q 2886 4102 2490 4102 
L 960 4102 
L 1005 4192 
L 1005 2176 
L 934 2266 
z
" transform="scale(0.015625)"/>
       <path id="Quicksand-Regular-75" d="M 2950 3251 
Q 3034 3251 3088 3193 
Q 3142 3136 3142 3059 
L 3142 1254 
Q 3142 621 2784 288 
Q 2426 -45 1818 -45 
Q 1216 -45 861 288 
Q 506 621 506 1254 
L 506 3059 
Q 506 3136 560 3193 
Q 614 3251 698 3251 
Q 781 3251 835 3193 
Q 890 3136 890 3059 
L 890 1254 
Q 890 794 1136 554 
Q 1382 314 1818 314 
Q 2259 314 2508 554 
Q 2758 794 2758 1254 
L 2758 3059 
Q 2758 3136 2809 3193 
Q 2861 3251 2950 3251 
z
" transform="scale(0.015625)"/>
       <path id="Quicksand-Regular-6e" d="M 2048 3347 
Q 2470 3347 2723 3177 
Q 2976 3008 3088 2717 
Q 3200 2426 3200 2074 
L 3200 192 
Q 3200 115 3142 57 
Q 3085 0 3008 0 
Q 2918 0 2867 57 
Q 2816 115 2816 192 
L 2816 2054 
Q 2816 2310 2733 2521 
Q 2650 2733 2461 2861 
Q 2272 2989 1965 2989 
Q 1690 2989 1443 2861 
Q 1197 2733 1043 2521 
Q 890 2310 890 2054 
L 890 192 
Q 890 115 832 57 
Q 774 0 698 0 
Q 608 0 557 57 
Q 506 115 506 192 
L 506 3059 
Q 506 3136 560 3193 
Q 614 3251 698 3251 
Q 781 3251 835 3193 
Q 890 3136 890 3059 
L 890 2522 
L 742 2291 
Q 755 2496 873 2685 
Q 992 2874 1177 3024 
Q 1363 3174 1590 3260 
Q 1818 3347 2048 3347 
z
" transform="scale(0.015625)"/>
       <path id="Quicksand-Regular-69" d="M 877 192 
Q 877 115 819 57 
Q 762 0 685 0 
Q 602 0 547 57 
Q 493 115 493 192 
L 493 3136 
Q 493 3213 547 3270 
Q 602 3328 685 3328 
Q 768 3328 822 3270 
Q 877 3213 877 3136 
L 877 192 
z
M 685 3763 
Q 550 3763 483 3824 
Q 416 3885 416 4000 
L 416 4064 
Q 416 4179 489 4240 
Q 563 4301 691 4301 
Q 813 4301 880 4240 
Q 947 4179 947 4064 
L 947 4000 
Q 947 3885 880 3824 
Q 813 3763 685 3763 
z
" transform="scale(0.015625)"/>
       <path id="Quicksand-Regular-6d" d="M 1978 3296 
Q 2374 3296 2656 3088 
Q 2938 2880 3040 2470 
L 2950 2445 
L 2989 2560 
Q 3072 2752 3267 2921 
Q 3462 3091 3712 3193 
Q 3962 3296 4218 3296 
Q 4621 3296 4867 3123 
Q 5114 2950 5226 2659 
Q 5338 2368 5338 2003 
L 5338 192 
Q 5338 115 5283 57 
Q 5229 0 5146 0 
Q 5062 0 5008 57 
Q 4954 115 4954 192 
L 4954 1984 
Q 4954 2246 4870 2464 
Q 4787 2682 4608 2810 
Q 4429 2938 4128 2938 
Q 3866 2938 3626 2810 
Q 3386 2682 3235 2464 
Q 3085 2246 3085 1984 
L 3085 192 
Q 3085 115 3030 57 
Q 2976 0 2893 0 
Q 2810 0 2755 57 
Q 2701 115 2701 192 
L 2701 2003 
Q 2701 2266 2624 2477 
Q 2547 2688 2374 2813 
Q 2202 2938 1907 2938 
Q 1645 2938 1411 2813 
Q 1178 2688 1034 2477 
Q 890 2266 890 2003 
L 890 192 
Q 890 115 832 57 
Q 774 0 698 0 
Q 608 0 557 57 
Q 506 115 506 192 
L 506 3059 
Q 506 3136 560 3193 
Q 614 3251 698 3251 
Q 781 3251 835 3193 
Q 890 3136 890 3059 
L 890 2464 
L 717 2227 
Q 736 2419 841 2611 
Q 947 2803 1120 2956 
Q 1293 3110 1513 3203 
Q 1734 3296 1978 3296 
z
" transform="scale(0.015625)"/>
       <path id="Quicksand-Regular-65" d="M 1984 -64 
Q 1491 -64 1113 147 
Q 736 358 525 736 
Q 314 1114 314 1619 
Q 314 2163 528 2547 
Q 742 2931 1084 3139 
Q 1427 3347 1811 3347 
Q 2093 3347 2358 3248 
Q 2624 3149 2832 2953 
Q 3040 2758 3165 2476 
Q 3290 2195 3302 1824 
Q 3296 1747 3238 1692 
Q 3181 1638 3104 1638 
L 538 1638 
L 461 1984 
L 2982 1984 
L 2899 1907 
L 2899 2035 
Q 2874 2336 2707 2547 
Q 2541 2758 2304 2867 
Q 2067 2976 1811 2976 
Q 1619 2976 1417 2899 
Q 1216 2822 1053 2659 
Q 890 2496 787 2243 
Q 685 1990 685 1645 
Q 685 1267 838 960 
Q 992 653 1283 473 
Q 1574 294 1978 294 
Q 2202 294 2381 358 
Q 2560 422 2694 528 
Q 2829 634 2918 749 
Q 2989 806 3059 806 
Q 3123 806 3171 755 
Q 3219 704 3219 640 
Q 3219 563 3155 506 
Q 2963 275 2656 105 
Q 2349 -64 1984 -64 
z
" transform="scale(0.015625)"/>
       <path id="Quicksand-Regular-5b" d="M 685 -1216 
Q 614 -1216 563 -1165 
Q 512 -1114 512 -1043 
L 512 4307 
Q 512 4378 563 4429 
Q 614 4480 685 4480 
L 2144 4480 
Q 2214 4480 2265 4432 
Q 2317 4384 2317 4314 
Q 2317 4243 2265 4195 
Q 2214 4147 2144 4147 
L 832 4147 
L 890 4192 
L 890 -954 
L 838 -870 
L 2144 -870 
Q 2214 -870 2265 -924 
Q 2317 -979 2317 -1050 
Q 2317 -1114 2265 -1165 
Q 2214 -1216 2144 -1216 
L 685 -1216 
z
" transform="scale(0.015625)"/>
       <path id="Quicksand-Regular-73" d="M 320 518 
Q 269 595 272 668 
Q 275 742 352 787 
Q 403 832 470 825 
Q 538 819 595 762 
Q 768 538 1014 400 
Q 1261 262 1600 262 
Q 1779 262 1955 323 
Q 2131 384 2246 509 
Q 2362 634 2362 826 
Q 2362 1024 2246 1145 
Q 2131 1267 1948 1337 
Q 1766 1408 1562 1459 
Q 1344 1517 1139 1590 
Q 934 1664 777 1776 
Q 621 1888 525 2048 
Q 429 2208 429 2438 
Q 429 2707 576 2912 
Q 723 3117 976 3232 
Q 1229 3347 1549 3347 
Q 1709 3347 1894 3305 
Q 2080 3264 2259 3168 
Q 2438 3072 2579 2906 
Q 2637 2848 2637 2774 
Q 2637 2701 2573 2643 
Q 2522 2605 2454 2605 
Q 2387 2605 2342 2656 
Q 2189 2829 1977 2918 
Q 1766 3008 1523 3008 
Q 1338 3008 1174 2947 
Q 1011 2886 902 2764 
Q 794 2643 794 2445 
Q 806 2259 924 2144 
Q 1043 2029 1238 1952 
Q 1434 1875 1677 1811 
Q 1882 1760 2070 1689 
Q 2259 1619 2403 1513 
Q 2547 1408 2633 1248 
Q 2720 1088 2720 845 
Q 2720 563 2563 358 
Q 2406 154 2144 45 
Q 1882 -64 1562 -64 
Q 1216 -64 893 70 
Q 570 205 320 518 
z
" transform="scale(0.015625)"/>
       <path id="Quicksand-Regular-5d" d="M 1856 4480 
Q 1926 4480 1977 4429 
Q 2029 4378 2029 4307 
L 2029 -1043 
Q 2029 -1114 1977 -1165 
Q 1926 -1216 1856 -1216 
L 397 -1216 
Q 326 -1216 275 -1168 
Q 224 -1120 224 -1050 
Q 224 -979 275 -931 
Q 326 -883 397 -883 
L 1709 -883 
L 1651 -928 
L 1651 4218 
L 1696 4134 
L 397 4134 
Q 326 4134 275 4188 
Q 224 4243 224 4314 
Q 224 4384 275 4432 
Q 326 4480 397 4480 
L 1856 4480 
z
" transform="scale(0.015625)"/>
      </defs>
      <use xlink:href="#Quicksand-Regular-54"/>
      <use xlink:href="#Quicksand-Regular-6f" x="60.399994"/>
      <use xlink:href="#Quicksand-Regular-74" x="120.799988"/>
      <use xlink:href="#Quicksand-Regular-61" x="154.699982"/>
      <use xlink:href="#Quicksand-Regular-6c" x="215.299973"/>
      <use xlink:href="#Quicksand-Regular-20" x="238.299957"/>
      <use xlink:href="#Quicksand-Regular-52" x="265.599945"/>
      <use xlink:href="#Quicksand-Regular-75" x="332.59993"/>
      <use xlink:href="#Quicksand-Regular-6e" x="389.499924"/>
      <use xlink:href="#Quicksand-Regular-74" x="447.299911"/>
      <use xlink:href="#Quicksand-Regular-69" x="481.199905"/>
      <use xlink:href="#Quicksand-Regular-6d" x="502.599899"/>
      <use xlink:href="#Quicksand-Regular-65" x="593.799881"/>
      <use xlink:href="#Quicksand-Regular-20" x="650.299866"/>
      <use xlink:href="#Quicksand-Regular-5b" x="677.599854"/>
      <use xlink:href="#Quicksand-Regular-73" x="717.29985"/>
      <use xlink:href="#Quicksand-Regular-5d" x="764.199844"/>
     </g>
    </g>
   </g>
   <g id="LineCollection_1">
    <path d="M 73.025455 284.726846 
L 73.025455 281.829493 
" clip-path="url(#p1b94d0107a)" style="fill: none; stroke: #b3e2f7; stroke-width: 1.5"/>
    <path d="M 101.997625 265.111768 
L 101.997625 254.349842 
" clip-path="url(#p1b94d0107a)" style="fill: none; stroke: #b3e2f7; stroke-width: 1.5"/>
    <path d="M 138.212839 253.41607 
L 138.212839 245.71172 
" clip-path="url(#p1b94d0107a)" style="fill: none; stroke: #b3e2f7; stroke-width: 1.5"/>
    <path d="M 210.643265 215.289932 
L 210.643265 192.820976 
" clip-path="url(#p1b94d0107a)" style="fill: none; stroke: #b3e2f7; stroke-width: 1.5"/>
    <path d="M 283.073692 78.756435 
L 283.073692 51.563774 
" clip-path="url(#p1b94d0107a)" style="fill: none; stroke: #b3e2f7; stroke-width: 1.5"/>
    <path d="M 355.504119 142.079438 
L 355.504119 131.849198 
" clip-path="url(#p1b94d0107a)" style="fill: none; stroke: #b3e2f7; stroke-width: 1.5"/>
    <path d="M 427.934545 108.008715 
L 427.934545 89.61255 
" clip-path="url(#p1b94d0107a)" style="fill: none; stroke: #b3e2f7; stroke-width: 1.5"/>
   </g>
   <g id="LineCollection_2">
    <path d="M 73.025455 278.868189 
L 73.025455 278.474448 
" clip-path="url(#p1b94d0107a)" style="fill: none; stroke: #00b1ff; stroke-width: 1.5"/>
    <path d="M 101.997625 278.650643 
L 101.997625 278.287633 
" clip-path="url(#p1b94d0107a)" style="fill: none; stroke: #00b1ff; stroke-width: 1.5"/>
    <path d="M 138.212839 278.677357 
L 138.212839 278.381342 
" clip-path="url(#p1b94d0107a)" style="fill: none; stroke: #00b1ff; stroke-width: 1.5"/>
    <path d="M 210.643265 278.716899 
L 210.643265 278.191317 
" clip-path="url(#p1b94d0107a)" style="fill: none; stroke: #00b1ff; stroke-width: 1.5"/>
    <path d="M 283.073692 277.912505 
L 283.073692 276.800881 
" clip-path="url(#p1b94d0107a)" style="fill: none; stroke: #00b1ff; stroke-width: 1.5"/>
    <path d="M 355.504119 278.299697 
L 355.504119 277.918751 
" clip-path="url(#p1b94d0107a)" style="fill: none; stroke: #00b1ff; stroke-width: 1.5"/>
    <path d="M 427.934545 277.652116 
L 427.934545 277.001501 
" clip-path="url(#p1b94d0107a)" style="fill: none; stroke: #00b1ff; stroke-width: 1.5"/>
   </g>
   <g id="LineCollection_3">
    <path d="M 73.025455 283.237985 
L 73.025455 280.86718 
" clip-path="url(#p1b94d0107a)" style="fill: none; stroke: #ffcff8; stroke-width: 1.5"/>
    <path d="M 101.997625 264.641478 
L 101.997625 259.376096 
" clip-path="url(#p1b94d0107a)" style="fill: none; stroke: #ffcff8; stroke-width: 1.5"/>
    <path d="M 138.212839 228.905136 
L 138.212839 221.926447 
" clip-path="url(#p1b94d0107a)" style="fill: none; stroke: #ffcff8; stroke-width: 1.5"/>
    <path d="M 210.643265 178.795179 
L 210.643265 150.915597 
" clip-path="url(#p1b94d0107a)" style="fill: none; stroke: #ffcff8; stroke-width: 1.5"/>
    <path d="M 283.073692 151.971576 
L 283.073692 126.022325 
" clip-path="url(#p1b94d0107a)" style="fill: none; stroke: #ffcff8; stroke-width: 1.5"/>
    <path d="M 355.504119 151.048268 
L 355.504119 130.458092 
" clip-path="url(#p1b94d0107a)" style="fill: none; stroke: #ffcff8; stroke-width: 1.5"/>
    <path d="M 427.934545 136.866866 
L 427.934545 115.942546 
" clip-path="url(#p1b94d0107a)" style="fill: none; stroke: #ffcff8; stroke-width: 1.5"/>
   </g>
   <g id="LineCollection_4">
    <path d="M 73.025455 277.354256 
L 73.025455 276.947745 
" clip-path="url(#p1b94d0107a)" style="fill: none; stroke: #ff00d9; stroke-width: 1.5"/>
    <path d="M 101.997625 277.416469 
L 101.997625 277.07464 
" clip-path="url(#p1b94d0107a)" style="fill: none; stroke: #ff00d9; stroke-width: 1.5"/>
    <path d="M 138.212839 277.197503 
L 138.212839 276.868098 
" clip-path="url(#p1b94d0107a)" style="fill: none; stroke: #ff00d9; stroke-width: 1.5"/>
    <path d="M 210.643265 276.922341 
L 210.643265 276.451794 
" clip-path="url(#p1b94d0107a)" style="fill: none; stroke: #ff00d9; stroke-width: 1.5"/>
    <path d="M 283.073692 273.910909 
L 283.073692 263.529807 
" clip-path="url(#p1b94d0107a)" style="fill: none; stroke: #ff00d9; stroke-width: 1.5"/>
    <path d="M 355.504119 274.734539 
L 355.504119 271.790385 
" clip-path="url(#p1b94d0107a)" style="fill: none; stroke: #ff00d9; stroke-width: 1.5"/>
    <path d="M 427.934545 276.679586 
L 427.934545 276.378483 
" clip-path="url(#p1b94d0107a)" style="fill: none; stroke: #ff00d9; stroke-width: 1.5"/>
   </g>
   <g id="line2d_17">
    <path d="M 73.025455 283.278169 
L 101.997625 259.730805 
L 138.212839 249.563895 
L 210.643265 204.055454 
L 283.073692 65.160104 
L 355.504119 136.964318 
L 427.934545 98.810632 
" clip-path="url(#p1b94d0107a)" style="fill: none; stroke-dasharray: 5.55,2.4; stroke-dashoffset: 0; stroke: #b3e2f7; stroke-width: 1.5"/>
    <defs>
     <path id="m26720620e5" d="M 0 3 
C 0.795609 3 1.55874 2.683901 2.12132 2.12132 
C 2.683901 1.55874 3 0.795609 3 0 
C 3 -0.795609 2.683901 -1.55874 2.12132 -2.12132 
C 1.55874 -2.683901 0.795609 -3 0 -3 
C -0.795609 -3 -1.55874 -2.683901 -2.12132 -2.12132 
C -2.683901 -1.55874 -3 -0.795609 -3 0 
C -3 0.795609 -2.683901 1.55874 -2.12132 2.12132 
C -1.55874 2.683901 -0.795609 3 0 3 
z
" style="stroke: #b3e2f7"/>
    </defs>
    <g clip-path="url(#p1b94d0107a)">
     <use xlink:href="#m26720620e5" x="73.025455" y="283.278169" style="fill: #b3e2f7; stroke: #b3e2f7"/>
     <use xlink:href="#m26720620e5" x="101.997625" y="259.730805" style="fill: #b3e2f7; stroke: #b3e2f7"/>
     <use xlink:href="#m26720620e5" x="138.212839" y="249.563895" style="fill: #b3e2f7; stroke: #b3e2f7"/>
     <use xlink:href="#m26720620e5" x="210.643265" y="204.055454" style="fill: #b3e2f7; stroke: #b3e2f7"/>
     <use xlink:href="#m26720620e5" x="283.073692" y="65.160104" style="fill: #b3e2f7; stroke: #b3e2f7"/>
     <use xlink:href="#m26720620e5" x="355.504119" y="136.964318" style="fill: #b3e2f7; stroke: #b3e2f7"/>
     <use xlink:href="#m26720620e5" x="427.934545" y="98.810632" style="fill: #b3e2f7; stroke: #b3e2f7"/>
    </g>
   </g>
   <g id="line2d_18">
    <path d="M 73.025455 278.671318 
L 101.997625 278.469138 
L 138.212839 278.52935 
L 210.643265 278.454108 
L 283.073692 277.356693 
L 355.504119 278.109224 
L 427.934545 277.326808 
" clip-path="url(#p1b94d0107a)" style="fill: none; stroke: #00b1ff; stroke-width: 1.5; stroke-linecap: square"/>
    <defs>
     <path id="m1d661a3f43" d="M -3 3 
L 3 3 
L 3 -3 
L -3 -3 
z
" style="stroke: #00b1ff; stroke-linejoin: miter"/>
    </defs>
    <g clip-path="url(#p1b94d0107a)">
     <use xlink:href="#m1d661a3f43" x="73.025455" y="278.671318" style="fill: #00b1ff; stroke: #00b1ff; stroke-linejoin: miter"/>
     <use xlink:href="#m1d661a3f43" x="101.997625" y="278.469138" style="fill: #00b1ff; stroke: #00b1ff; stroke-linejoin: miter"/>
     <use xlink:href="#m1d661a3f43" x="138.212839" y="278.52935" style="fill: #00b1ff; stroke: #00b1ff; stroke-linejoin: miter"/>
     <use xlink:href="#m1d661a3f43" x="210.643265" y="278.454108" style="fill: #00b1ff; stroke: #00b1ff; stroke-linejoin: miter"/>
     <use xlink:href="#m1d661a3f43" x="283.073692" y="277.356693" style="fill: #00b1ff; stroke: #00b1ff; stroke-linejoin: miter"/>
     <use xlink:href="#m1d661a3f43" x="355.504119" y="278.109224" style="fill: #00b1ff; stroke: #00b1ff; stroke-linejoin: miter"/>
     <use xlink:href="#m1d661a3f43" x="427.934545" y="277.326808" style="fill: #00b1ff; stroke: #00b1ff; stroke-linejoin: miter"/>
    </g>
   </g>
   <g id="line2d_19">
    <path d="M 73.025455 282.052582 
L 101.997625 262.008787 
L 138.212839 225.415791 
L 210.643265 164.855388 
L 283.073692 138.99695 
L 355.504119 140.75318 
L 427.934545 126.404706 
" clip-path="url(#p1b94d0107a)" style="fill: none; stroke-dasharray: 5.55,2.4; stroke-dashoffset: 0; stroke: #ffcff8; stroke-width: 1.5"/>
    <defs>
     <path id="mc862ebac61" d="M 0 3 
C 0.795609 3 1.55874 2.683901 2.12132 2.12132 
C 2.683901 1.55874 3 0.795609 3 0 
C 3 -0.795609 2.683901 -1.55874 2.12132 -2.12132 
C 1.55874 -2.683901 0.795609 -3 0 -3 
C -0.795609 -3 -1.55874 -2.683901 -2.12132 -2.12132 
C -2.683901 -1.55874 -3 -0.795609 -3 0 
C -3 0.795609 -2.683901 1.55874 -2.12132 2.12132 
C -1.55874 2.683901 -0.795609 3 0 3 
z
" style="stroke: #ffcff8"/>
    </defs>
    <g clip-path="url(#p1b94d0107a)">
     <use xlink:href="#mc862ebac61" x="73.025455" y="282.052582" style="fill: #ffcff8; stroke: #ffcff8"/>
     <use xlink:href="#mc862ebac61" x="101.997625" y="262.008787" style="fill: #ffcff8; stroke: #ffcff8"/>
     <use xlink:href="#mc862ebac61" x="138.212839" y="225.415791" style="fill: #ffcff8; stroke: #ffcff8"/>
     <use xlink:href="#mc862ebac61" x="210.643265" y="164.855388" style="fill: #ffcff8; stroke: #ffcff8"/>
     <use xlink:href="#mc862ebac61" x="283.073692" y="138.99695" style="fill: #ffcff8; stroke: #ffcff8"/>
     <use xlink:href="#mc862ebac61" x="355.504119" y="140.75318" style="fill: #ffcff8; stroke: #ffcff8"/>
     <use xlink:href="#mc862ebac61" x="427.934545" y="126.404706" style="fill: #ffcff8; stroke: #ffcff8"/>
    </g>
   </g>
   <g id="line2d_20">
    <path d="M 73.025455 277.151001 
L 101.997625 277.245554 
L 138.212839 277.0328 
L 210.643265 276.687067 
L 283.073692 268.720358 
L 355.504119 273.262462 
L 427.934545 276.529034 
" clip-path="url(#p1b94d0107a)" style="fill: none; stroke: #ff00d9; stroke-width: 1.5; stroke-linecap: square"/>
    <defs>
     <path id="m6a172c2491" d="M -3 3 
L 3 3 
L 3 -3 
L -3 -3 
z
" style="stroke: #ff00d9; stroke-linejoin: miter"/>
    </defs>
    <g clip-path="url(#p1b94d0107a)">
     <use xlink:href="#m6a172c2491" x="73.025455" y="277.151001" style="fill: #ff00d9; stroke: #ff00d9; stroke-linejoin: miter"/>
     <use xlink:href="#m6a172c2491" x="101.997625" y="277.245554" style="fill: #ff00d9; stroke: #ff00d9; stroke-linejoin: miter"/>
     <use xlink:href="#m6a172c2491" x="138.212839" y="277.0328" style="fill: #ff00d9; stroke: #ff00d9; stroke-linejoin: miter"/>
     <use xlink:href="#m6a172c2491" x="210.643265" y="276.687067" style="fill: #ff00d9; stroke: #ff00d9; stroke-linejoin: miter"/>
     <use xlink:href="#m6a172c2491" x="283.073692" y="268.720358" style="fill: #ff00d9; stroke: #ff00d9; stroke-linejoin: miter"/>
     <use xlink:href="#m6a172c2491" x="355.504119" y="273.262462" style="fill: #ff00d9; stroke: #ff00d9; stroke-linejoin: miter"/>
     <use xlink:href="#m6a172c2491" x="427.934545" y="276.529034" style="fill: #ff00d9; stroke: #ff00d9; stroke-linejoin: miter"/>
    </g>
   </g>
   <g id="patch_3">
    <path d="M 55.28 296.385 
L 55.28 15.12 
" style="fill: none; stroke: #000000; stroke-width: 0.8; stroke-linejoin: miter; stroke-linecap: square"/>
   </g>
   <g id="patch_4">
    <path d="M 445.68 296.385 
L 445.68 15.12 
" style="fill: none; stroke: #000000; stroke-width: 0.8; stroke-linejoin: miter; stroke-linecap: square"/>
   </g>
   <g id="patch_5">
    <path d="M 55.28 296.385 
L 445.68 296.385 
" style="fill: none; stroke: #000000; stroke-width: 0.8; stroke-linejoin: miter; stroke-linecap: square"/>
   </g>
   <g id="patch_6">
    <path d="M 55.28 15.12 
L 445.68 15.12 
" style="fill: none; stroke: #000000; stroke-width: 0.8; stroke-linejoin: miter; stroke-linecap: square"/>
   </g>
   <g id="text_7">
    <!-- Variational Quantum Eigensolver (VQE) -->
    <g transform="translate(63.088 31.1053) scale(0.14 -0.14)">
     <defs>
      <path id="Quicksand-Regular-56" d="M 3840 4486 
Q 3930 4486 3984 4435 
Q 4038 4384 4038 4307 
Q 4038 4262 4019 4211 
L 2310 128 
Q 2278 64 2227 32 
Q 2176 0 2125 0 
Q 2067 0 2016 32 
Q 1965 64 1946 122 
L 243 4198 
Q 237 4218 230 4243 
Q 224 4269 224 4301 
Q 224 4384 285 4435 
Q 346 4486 410 4486 
Q 544 4486 602 4346 
L 2202 518 
L 2086 518 
L 3661 4358 
Q 3725 4486 3840 4486 
z
" transform="scale(0.015625)"/>
      <path id="Quicksand-Regular-72" d="M 698 0 
Q 608 0 557 57 
Q 506 115 506 192 
L 506 3059 
Q 506 3136 560 3193 
Q 614 3251 698 3251 
Q 781 3251 835 3193 
Q 890 3136 890 3059 
L 890 2099 
L 794 2080 
Q 813 2304 905 2525 
Q 998 2746 1158 2931 
Q 1318 3117 1539 3232 
Q 1760 3347 2035 3347 
Q 2150 3347 2259 3299 
Q 2368 3251 2368 3142 
Q 2368 3046 2317 2995 
Q 2266 2944 2195 2944 
Q 2138 2944 2070 2976 
Q 2003 3008 1894 3008 
Q 1715 3008 1536 2902 
Q 1357 2797 1209 2617 
Q 1062 2438 976 2217 
Q 890 1997 890 1773 
L 890 192 
Q 890 115 832 57 
Q 774 0 698 0 
z
" transform="scale(0.015625)"/>
      <path id="Quicksand-Regular-51" d="M 4902 -358 
Q 4973 -358 5024 -406 
Q 5075 -454 5075 -531 
Q 5075 -640 4963 -742 
Q 4851 -845 4668 -931 
Q 4486 -1018 4284 -1066 
Q 4083 -1114 3904 -1114 
Q 3526 -1114 3270 -1030 
Q 3014 -947 2822 -838 
Q 2630 -730 2432 -646 
Q 2234 -563 1958 -563 
Q 1843 -563 1756 -601 
Q 1670 -640 1596 -675 
Q 1523 -710 1440 -710 
Q 1363 -710 1308 -652 
Q 1254 -595 1254 -512 
Q 1254 -397 1363 -352 
L 2464 45 
L 3053 26 
L 2035 -320 
L 2118 -230 
Q 2387 -230 2598 -307 
Q 2810 -384 3005 -489 
Q 3200 -595 3417 -675 
Q 3635 -755 3917 -755 
Q 4166 -755 4329 -681 
Q 4493 -608 4595 -550 
Q 4691 -493 4758 -425 
Q 4826 -358 4902 -358 
z
M 4595 2240 
Q 4595 1734 4438 1315 
Q 4282 896 3994 585 
Q 3706 275 3312 105 
Q 2918 -64 2451 -64 
Q 1984 -64 1590 105 
Q 1197 275 909 585 
Q 621 896 464 1315 
Q 307 1734 307 2240 
Q 307 2746 464 3165 
Q 621 3584 909 3894 
Q 1197 4205 1590 4374 
Q 1984 4544 2451 4544 
Q 2918 4544 3312 4374 
Q 3706 4205 3994 3894 
Q 4282 3584 4438 3165 
Q 4595 2746 4595 2240 
z
M 4186 2240 
Q 4186 2810 3965 3242 
Q 3744 3674 3353 3917 
Q 2963 4160 2451 4160 
Q 1946 4160 1552 3917 
Q 1158 3674 937 3242 
Q 717 2810 717 2240 
Q 717 1670 937 1238 
Q 1158 806 1552 563 
Q 1946 320 2451 320 
Q 2963 320 3353 563 
Q 3744 806 3965 1238 
Q 4186 1670 4186 2240 
z
" transform="scale(0.015625)"/>
      <path id="Quicksand-Regular-45" d="M 794 4480 
L 3142 4480 
Q 3219 4480 3276 4425 
Q 3334 4371 3334 4288 
Q 3334 4205 3276 4153 
Q 3219 4102 3142 4102 
L 941 4102 
L 1005 4211 
L 1005 2413 
L 934 2496 
L 2854 2496 
Q 2931 2496 2988 2438 
Q 3046 2381 3046 2304 
Q 3046 2221 2988 2169 
Q 2931 2118 2854 2118 
L 947 2118 
L 1005 2182 
L 1005 339 
L 973 378 
L 3142 378 
Q 3219 378 3276 320 
Q 3334 262 3334 186 
Q 3334 102 3276 51 
Q 3219 0 3142 0 
L 794 0 
Q 717 0 659 57 
Q 602 115 602 192 
L 602 4288 
Q 602 4365 659 4422 
Q 717 4480 794 4480 
z
" transform="scale(0.015625)"/>
      <path id="Quicksand-Regular-67" d="M 1869 3347 
Q 2157 3347 2400 3248 
Q 2643 3149 2825 2992 
Q 3008 2835 3110 2659 
Q 3213 2483 3213 2323 
L 3104 2477 
L 3104 3072 
Q 3104 3155 3158 3212 
Q 3213 3270 3296 3270 
Q 3386 3270 3437 3212 
Q 3488 3155 3488 3072 
L 3488 301 
Q 3488 -211 3277 -563 
Q 3066 -915 2704 -1097 
Q 2342 -1280 1882 -1280 
Q 1658 -1280 1411 -1222 
Q 1165 -1165 989 -1075 
Q 813 -986 794 -890 
Q 742 -832 745 -777 
Q 749 -723 800 -685 
Q 864 -640 934 -675 
Q 1005 -710 1146 -768 
Q 1210 -787 1318 -825 
Q 1427 -864 1577 -893 
Q 1728 -922 1894 -922 
Q 2470 -922 2787 -592 
Q 3104 -262 3104 275 
L 3104 890 
L 3174 870 
Q 3117 640 2985 467 
Q 2854 294 2675 176 
Q 2496 58 2288 -3 
Q 2080 -64 1875 -64 
Q 1434 -64 1082 160 
Q 730 384 522 768 
Q 314 1152 314 1645 
Q 314 2131 522 2518 
Q 730 2906 1078 3126 
Q 1427 3347 1869 3347 
z
M 1914 2989 
Q 1562 2989 1283 2813 
Q 1005 2637 848 2333 
Q 691 2029 691 1645 
Q 691 1261 848 953 
Q 1005 646 1283 470 
Q 1562 294 1914 294 
Q 2266 294 2541 467 
Q 2816 640 2976 944 
Q 3136 1248 3136 1645 
Q 3136 2042 2976 2346 
Q 2816 2650 2541 2819 
Q 2266 2989 1914 2989 
z
" transform="scale(0.015625)"/>
      <path id="Quicksand-Regular-76" d="M 429 3341 
Q 480 3341 531 3309 
Q 582 3277 608 3213 
L 1728 550 
L 1645 499 
L 2790 3213 
Q 2842 3341 2976 3334 
Q 3040 3334 3097 3292 
Q 3155 3251 3155 3174 
Q 3155 3136 3145 3113 
Q 3136 3091 3130 3066 
L 1875 122 
Q 1824 6 1702 0 
Q 1645 -6 1590 29 
Q 1536 64 1510 122 
L 250 3066 
Q 243 3078 236 3104 
Q 230 3130 230 3155 
Q 230 3226 281 3283 
Q 333 3341 429 3341 
z
" transform="scale(0.015625)"/>
      <path id="Quicksand-Regular-28" d="M 2054 -1229 
Q 2010 -1229 1958 -1197 
Q 1421 -928 1062 -483 
Q 704 -38 521 512 
Q 339 1062 339 1645 
Q 339 2227 528 2761 
Q 717 3296 1081 3741 
Q 1446 4186 1965 4493 
Q 2010 4518 2054 4518 
Q 2131 4518 2176 4464 
Q 2221 4410 2221 4346 
Q 2221 4256 2144 4198 
Q 1690 3936 1373 3529 
Q 1056 3123 889 2636 
Q 723 2150 723 1645 
Q 723 1139 883 646 
Q 1043 154 1360 -252 
Q 1677 -659 2144 -909 
Q 2221 -954 2221 -1056 
Q 2221 -1120 2176 -1174 
Q 2131 -1229 2054 -1229 
z
" transform="scale(0.015625)"/>
      <path id="Quicksand-Regular-29" d="M 333 -1222 
Q 262 -1222 214 -1168 
Q 166 -1114 166 -1050 
Q 166 -954 250 -902 
Q 704 -640 1021 -233 
Q 1338 173 1504 659 
Q 1670 1146 1670 1651 
Q 1670 2157 1510 2649 
Q 1350 3142 1033 3552 
Q 717 3962 250 4211 
Q 173 4256 173 4352 
Q 173 4422 214 4473 
Q 256 4525 333 4525 
Q 384 4525 429 4499 
Q 973 4224 1331 3779 
Q 1690 3334 1872 2787 
Q 2054 2240 2054 1651 
Q 2054 1075 1865 534 
Q 1677 -6 1312 -448 
Q 947 -890 429 -1197 
Q 390 -1222 333 -1222 
z
" transform="scale(0.015625)"/>
     </defs>
     <use xlink:href="#Quicksand-Regular-56"/>
     <use xlink:href="#Quicksand-Regular-61" x="66.499985"/>
     <use xlink:href="#Quicksand-Regular-72" x="127.099976"/>
     <use xlink:href="#Quicksand-Regular-69" x="165.59996"/>
     <use xlink:href="#Quicksand-Regular-61" x="186.999954"/>
     <use xlink:href="#Quicksand-Regular-74" x="247.599945"/>
     <use xlink:href="#Quicksand-Regular-69" x="281.499939"/>
     <use xlink:href="#Quicksand-Regular-6f" x="302.899933"/>
     <use xlink:href="#Quicksand-Regular-6e" x="363.299927"/>
     <use xlink:href="#Quicksand-Regular-61" x="421.099915"/>
     <use xlink:href="#Quicksand-Regular-6c" x="481.699905"/>
     <use xlink:href="#Quicksand-Regular-20" x="504.69989"/>
     <use xlink:href="#Quicksand-Regular-51" x="531.999878"/>
     <use xlink:href="#Quicksand-Regular-75" x="609.499863"/>
     <use xlink:href="#Quicksand-Regular-61" x="666.399857"/>
     <use xlink:href="#Quicksand-Regular-6e" x="726.999847"/>
     <use xlink:href="#Quicksand-Regular-74" x="784.799835"/>
     <use xlink:href="#Quicksand-Regular-75" x="818.699829"/>
     <use xlink:href="#Quicksand-Regular-6d" x="875.599823"/>
     <use xlink:href="#Quicksand-Regular-20" x="966.799805"/>
     <use xlink:href="#Quicksand-Regular-45" x="994.099792"/>
     <use xlink:href="#Quicksand-Regular-69" x="1050.89978"/>
     <use xlink:href="#Quicksand-Regular-67" x="1072.299774"/>
     <use xlink:href="#Quicksand-Regular-65" x="1134.699768"/>
     <use xlink:href="#Quicksand-Regular-6e" x="1191.199753"/>
     <use xlink:href="#Quicksand-Regular-73" x="1248.999741"/>
     <use xlink:href="#Quicksand-Regular-6f" x="1295.899734"/>
     <use xlink:href="#Quicksand-Regular-6c" x="1356.299728"/>
     <use xlink:href="#Quicksand-Regular-76" x="1379.299713"/>
     <use xlink:href="#Quicksand-Regular-65" x="1432.199707"/>
     <use xlink:href="#Quicksand-Regular-72" x="1488.699692"/>
     <use xlink:href="#Quicksand-Regular-20" x="1527.199677"/>
     <use xlink:href="#Quicksand-Regular-28" x="1554.499664"/>
     <use xlink:href="#Quicksand-Regular-56" x="1591.899658"/>
     <use xlink:href="#Quicksand-Regular-51" x="1658.399643"/>
     <use xlink:href="#Quicksand-Regular-45" x="1735.899628"/>
     <use xlink:href="#Quicksand-Regular-29" x="1792.699615"/>
    </g>
   </g>
   <g id="legend_1">
    <g id="LineCollection_5">
     <path d="M 78.08 53.4759 
L 78.08 41.4759 
" style="fill: none; stroke: #b3e2f7; stroke-width: 1.5"/>
    </g>
    <g id="line2d_21">
     <path d="M 66.08 47.4759 
L 90.08 47.4759 
" style="fill: none; stroke-dasharray: 5.55,2.4; stroke-dashoffset: 0; stroke: #b3e2f7; stroke-width: 1.5"/>
    </g>
    <g id="line2d_22">
     <g>
      <use xlink:href="#m26720620e5" x="78.08" y="47.4759" style="fill: #b3e2f7; stroke: #b3e2f7"/>
     </g>
    </g>
    <g id="text_8">
     <!-- H2-STO-3G (PennyLane) -->
     <g transform="translate(99.68 51.6759) scale(0.12 -0.12)">
      <defs>
       <path id="Quicksand-Regular-48" d="M 806 4480 
Q 883 4480 944 4422 
Q 1005 4365 1005 4282 
L 1005 198 
Q 998 115 937 57 
Q 877 0 800 0 
Q 710 0 656 57 
Q 602 115 602 198 
L 602 4282 
Q 602 4365 659 4422 
Q 717 4480 806 4480 
z
M 3808 4480 
Q 3898 4480 3952 4422 
Q 4006 4365 4006 4282 
L 4006 198 
Q 4000 115 3945 57 
Q 3891 0 3802 0 
Q 3718 0 3660 57 
Q 3603 115 3603 198 
L 3603 4282 
Q 3603 4365 3664 4422 
Q 3725 4480 3808 4480 
z
M 774 2477 
L 3814 2477 
L 3808 2106 
L 749 2106 
L 774 2477 
z
" transform="scale(0.015625)"/>
       <path id="Quicksand-Regular-2d" d="M 557 1811 
Q 480 1811 425 1868 
Q 371 1926 371 2010 
Q 371 2086 425 2140 
Q 480 2195 557 2195 
L 1939 2195 
Q 2016 2195 2073 2137 
Q 2131 2080 2131 1997 
Q 2131 1920 2073 1865 
Q 2016 1811 1939 1811 
L 557 1811 
z
" transform="scale(0.015625)"/>
       <path id="Quicksand-Regular-53" d="M 1837 -64 
Q 1350 -70 992 90 
Q 634 250 307 570 
Q 275 595 252 633 
Q 230 672 230 723 
Q 230 800 291 864 
Q 352 928 429 928 
Q 506 928 570 864 
Q 819 595 1136 454 
Q 1453 314 1818 314 
Q 2125 314 2365 410 
Q 2605 506 2745 685 
Q 2886 864 2886 1101 
Q 2886 1395 2726 1577 
Q 2566 1760 2304 1878 
Q 2042 1997 1722 2093 
Q 1459 2170 1222 2269 
Q 986 2368 800 2512 
Q 614 2656 512 2867 
Q 410 3078 410 3379 
Q 410 3718 589 3980 
Q 768 4243 1097 4393 
Q 1427 4544 1862 4544 
Q 2240 4544 2589 4416 
Q 2938 4288 3142 4038 
Q 3238 3936 3238 3853 
Q 3238 3789 3174 3725 
Q 3110 3661 3034 3661 
Q 2970 3661 2925 3706 
Q 2816 3840 2649 3945 
Q 2483 4051 2281 4108 
Q 2080 4166 1862 4166 
Q 1562 4166 1322 4073 
Q 1082 3981 944 3808 
Q 806 3635 806 3392 
Q 806 3123 960 2950 
Q 1114 2778 1363 2666 
Q 1613 2554 1894 2458 
Q 2170 2381 2422 2281 
Q 2675 2182 2870 2035 
Q 3066 1888 3178 1664 
Q 3290 1440 3290 1101 
Q 3290 774 3104 512 
Q 2918 250 2595 96 
Q 2272 -58 1837 -64 
z
" transform="scale(0.015625)"/>
       <path id="Quicksand-Regular-4f" d="M 4595 2240 
Q 4595 1734 4438 1315 
Q 4282 896 3994 585 
Q 3706 275 3312 105 
Q 2918 -64 2451 -64 
Q 1984 -64 1590 105 
Q 1197 275 909 585 
Q 621 896 464 1315 
Q 307 1734 307 2240 
Q 307 2746 464 3165 
Q 621 3584 909 3894 
Q 1197 4205 1590 4374 
Q 1984 4544 2451 4544 
Q 2918 4544 3312 4374 
Q 3706 4205 3994 3894 
Q 4282 3584 4438 3165 
Q 4595 2746 4595 2240 
z
M 4186 2240 
Q 4186 2810 3965 3242 
Q 3744 3674 3353 3917 
Q 2963 4160 2451 4160 
Q 1946 4160 1552 3917 
Q 1158 3674 937 3242 
Q 717 2810 717 2240 
Q 717 1670 937 1238 
Q 1158 806 1552 563 
Q 1946 320 2451 320 
Q 2963 320 3353 563 
Q 3744 806 3965 1238 
Q 4186 1670 4186 2240 
z
" transform="scale(0.015625)"/>
       <path id="Quicksand-Regular-33" d="M 570 659 
Q 602 659 637 646 
Q 672 634 723 589 
Q 858 448 1043 374 
Q 1229 301 1466 301 
Q 1779 301 2038 441 
Q 2298 582 2451 835 
Q 2605 1088 2605 1414 
Q 2605 1786 2441 2013 
Q 2278 2240 2025 2352 
Q 1773 2464 1510 2464 
Q 1440 2464 1373 2454 
Q 1306 2445 1248 2432 
Q 1190 2419 1158 2419 
Q 1075 2419 1030 2473 
Q 986 2528 986 2611 
Q 986 2656 1005 2691 
Q 1024 2726 1056 2771 
L 2355 4186 
L 2432 4083 
L 493 4083 
Q 416 4083 361 4137 
Q 307 4192 307 4269 
Q 307 4346 361 4397 
Q 416 4448 493 4448 
L 2643 4448 
Q 2752 4448 2797 4381 
Q 2842 4314 2842 4250 
Q 2842 4211 2822 4176 
Q 2803 4141 2771 4102 
L 1472 2688 
L 1331 2771 
Q 1350 2790 1462 2812 
Q 1574 2835 1638 2835 
Q 1990 2835 2300 2668 
Q 2611 2502 2806 2192 
Q 3002 1882 3002 1427 
Q 3002 979 2790 643 
Q 2579 307 2220 121 
Q 1862 -64 1427 -64 
Q 1165 -64 909 25 
Q 653 115 461 294 
Q 416 333 397 371 
Q 378 410 378 448 
Q 378 525 432 592 
Q 486 659 570 659 
z
" transform="scale(0.015625)"/>
       <path id="Quicksand-Regular-47" d="M 2611 -64 
Q 2118 -64 1696 109 
Q 1274 282 963 592 
Q 653 902 480 1324 
Q 307 1747 307 2240 
Q 307 2733 480 3155 
Q 653 3578 963 3888 
Q 1274 4198 1696 4371 
Q 2118 4544 2611 4544 
Q 2950 4544 3267 4464 
Q 3584 4384 3834 4224 
Q 3878 4192 3900 4150 
Q 3923 4109 3923 4064 
Q 3923 3974 3865 3920 
Q 3808 3866 3744 3866 
Q 3712 3866 3683 3875 
Q 3654 3885 3629 3898 
Q 3411 4019 3155 4089 
Q 2899 4160 2611 4160 
Q 2061 4160 1632 3910 
Q 1203 3661 960 3225 
Q 717 2790 717 2240 
Q 717 1690 960 1254 
Q 1203 819 1632 569 
Q 2061 320 2611 320 
Q 2899 320 3190 403 
Q 3482 486 3693 627 
L 3661 493 
L 3661 1965 
L 3757 1875 
L 2650 1875 
Q 2566 1875 2508 1932 
Q 2451 1990 2451 2067 
Q 2451 2157 2508 2208 
Q 2566 2259 2650 2259 
L 3872 2259 
Q 3955 2259 4009 2204 
Q 4064 2150 4064 2067 
L 4064 525 
Q 4064 474 4038 429 
Q 4013 384 3968 352 
Q 3686 160 3337 48 
Q 2989 -64 2611 -64 
z
" transform="scale(0.015625)"/>
       <path id="Quicksand-Regular-50" d="M 2310 4480 
Q 2669 4480 2944 4317 
Q 3219 4154 3379 3866 
Q 3539 3578 3539 3206 
Q 3539 2835 3379 2537 
Q 3219 2240 2944 2067 
Q 2669 1894 2310 1894 
L 954 1894 
L 986 1958 
L 986 192 
Q 986 115 928 57 
Q 870 0 794 0 
Q 704 0 653 57 
Q 602 115 602 192 
L 602 4288 
Q 602 4365 659 4422 
Q 717 4480 794 4480 
L 2310 4480 
z
M 2310 2266 
Q 2560 2266 2745 2390 
Q 2931 2515 3036 2729 
Q 3142 2944 3142 3206 
Q 3142 3469 3036 3670 
Q 2931 3872 2745 3987 
Q 2560 4102 2310 4102 
L 954 4102 
L 986 4160 
L 986 2227 
L 947 2266 
L 2310 2266 
z
" transform="scale(0.015625)"/>
       <path id="Quicksand-Regular-79" d="M 2944 3328 
Q 3027 3328 3081 3270 
Q 3136 3213 3136 3136 
L 3136 314 
Q 3136 -205 2931 -560 
Q 2726 -915 2380 -1097 
Q 2035 -1280 1594 -1280 
Q 1318 -1280 1084 -1219 
Q 851 -1158 704 -1062 
Q 627 -1018 588 -954 
Q 550 -890 582 -819 
Q 614 -730 681 -701 
Q 749 -672 819 -704 
Q 928 -762 1133 -845 
Q 1338 -928 1600 -928 
Q 1952 -928 2211 -781 
Q 2470 -634 2611 -355 
Q 2752 -77 2752 307 
L 2752 768 
L 2797 614 
Q 2701 416 2525 262 
Q 2349 109 2121 22 
Q 1894 -64 1638 -64 
Q 1254 -64 1001 93 
Q 749 250 627 525 
Q 506 800 506 1171 
L 506 3136 
Q 506 3213 557 3270 
Q 608 3328 698 3328 
Q 781 3328 835 3270 
Q 890 3213 890 3136 
L 890 1229 
Q 890 781 1085 537 
Q 1280 294 1722 294 
Q 1997 294 2227 425 
Q 2458 557 2605 771 
Q 2752 986 2752 1229 
L 2752 3136 
Q 2752 3213 2806 3270 
Q 2861 3328 2944 3328 
z
" transform="scale(0.015625)"/>
       <path id="Quicksand-Regular-4c" d="M 3078 378 
Q 3155 378 3212 323 
Q 3270 269 3270 192 
Q 3270 109 3212 54 
Q 3155 0 3078 0 
L 794 0 
Q 710 0 656 57 
Q 602 115 602 192 
L 602 4288 
Q 602 4365 659 4422 
Q 717 4480 806 4480 
Q 883 4480 944 4422 
Q 1005 4365 1005 4288 
L 1005 269 
L 883 378 
L 3078 378 
z
" transform="scale(0.015625)"/>
      </defs>
      <use xlink:href="#Quicksand-Regular-48"/>
      <use xlink:href="#Quicksand-Regular-32" x="71.999985"/>
      <use xlink:href="#Quicksand-Regular-2d" x="127.399979"/>
      <use xlink:href="#Quicksand-Regular-53" x="166.399963"/>
      <use xlink:href="#Quicksand-Regular-54" x="222.59996"/>
      <use xlink:href="#Quicksand-Regular-4f" x="282.999954"/>
      <use xlink:href="#Quicksand-Regular-2d" x="359.599945"/>
      <use xlink:href="#Quicksand-Regular-33" x="398.59993"/>
      <use xlink:href="#Quicksand-Regular-47" x="450.999924"/>
      <use xlink:href="#Quicksand-Regular-20" x="520.499908"/>
      <use xlink:href="#Quicksand-Regular-28" x="547.799896"/>
      <use xlink:href="#Quicksand-Regular-50" x="585.19989"/>
      <use xlink:href="#Quicksand-Regular-65" x="644.799881"/>
      <use xlink:href="#Quicksand-Regular-6e" x="701.299866"/>
      <use xlink:href="#Quicksand-Regular-6e" x="759.099854"/>
      <use xlink:href="#Quicksand-Regular-79" x="816.899841"/>
      <use xlink:href="#Quicksand-Regular-4c" x="873.699829"/>
      <use xlink:href="#Quicksand-Regular-61" x="926.899826"/>
      <use xlink:href="#Quicksand-Regular-6e" x="987.499817"/>
      <use xlink:href="#Quicksand-Regular-65" x="1045.299805"/>
      <use xlink:href="#Quicksand-Regular-29" x="1101.799789"/>
     </g>
    </g>
    <g id="LineCollection_6">
     <path d="M 78.08 70.7559 
L 78.08 58.7559 
" style="fill: none; stroke: #00b1ff; stroke-width: 1.5"/>
    </g>
    <g id="line2d_23">
     <path d="M 66.08 64.7559 
L 90.08 64.7559 
" style="fill: none; stroke: #00b1ff; stroke-width: 1.5; stroke-linecap: square"/>
    </g>
    <g id="line2d_24">
     <g>
      <use xlink:href="#m1d661a3f43" x="78.08" y="64.7559" style="fill: #00b1ff; stroke: #00b1ff; stroke-linejoin: miter"/>
     </g>
    </g>
    <g id="text_9">
     <!-- H2-STO-3G (Catalyst) -->
     <g transform="translate(99.68 68.9559) scale(0.12 -0.12)">
      <defs>
       <path id="Quicksand-Regular-43" d="M 3872 4147 
Q 3949 4096 3961 4016 
Q 3974 3936 3923 3859 
Q 3878 3802 3808 3795 
Q 3738 3789 3674 3821 
Q 3430 3981 3152 4070 
Q 2874 4160 2554 4160 
Q 2163 4160 1827 4022 
Q 1491 3885 1241 3625 
Q 992 3366 854 3014 
Q 717 2662 717 2240 
Q 717 1805 857 1449 
Q 998 1094 1251 838 
Q 1504 582 1837 448 
Q 2170 314 2554 314 
Q 2867 314 3145 403 
Q 3424 493 3667 646 
Q 3731 685 3804 675 
Q 3878 666 3923 602 
Q 3981 531 3965 451 
Q 3949 371 3878 326 
Q 3718 224 3500 134 
Q 3283 45 3040 -9 
Q 2797 -64 2554 -64 
Q 2093 -64 1689 102 
Q 1286 269 972 573 
Q 659 877 483 1299 
Q 307 1722 307 2240 
Q 307 2739 480 3158 
Q 653 3578 960 3885 
Q 1267 4192 1676 4365 
Q 2086 4538 2554 4538 
Q 2918 4538 3257 4435 
Q 3597 4333 3872 4147 
z
" transform="scale(0.015625)"/>
      </defs>
      <use xlink:href="#Quicksand-Regular-48"/>
      <use xlink:href="#Quicksand-Regular-32" x="71.999985"/>
      <use xlink:href="#Quicksand-Regular-2d" x="127.399979"/>
      <use xlink:href="#Quicksand-Regular-53" x="166.399963"/>
      <use xlink:href="#Quicksand-Regular-54" x="222.59996"/>
      <use xlink:href="#Quicksand-Regular-4f" x="282.999954"/>
      <use xlink:href="#Quicksand-Regular-2d" x="359.599945"/>
      <use xlink:href="#Quicksand-Regular-33" x="398.59993"/>
      <use xlink:href="#Quicksand-Regular-47" x="450.999924"/>
      <use xlink:href="#Quicksand-Regular-20" x="520.499908"/>
      <use xlink:href="#Quicksand-Regular-28" x="547.799896"/>
      <use xlink:href="#Quicksand-Regular-43" x="585.19989"/>
      <use xlink:href="#Quicksand-Regular-61" x="650.499878"/>
      <use xlink:href="#Quicksand-Regular-74" x="711.099869"/>
      <use xlink:href="#Quicksand-Regular-61" x="744.999863"/>
      <use xlink:href="#Quicksand-Regular-6c" x="805.599854"/>
      <use xlink:href="#Quicksand-Regular-79" x="828.599838"/>
      <use xlink:href="#Quicksand-Regular-73" x="885.399826"/>
      <use xlink:href="#Quicksand-Regular-74" x="932.29982"/>
      <use xlink:href="#Quicksand-Regular-29" x="966.199814"/>
     </g>
    </g>
    <g id="LineCollection_7">
     <path d="M 78.08 88.0359 
L 78.08 76.0359 
" style="fill: none; stroke: #ffcff8; stroke-width: 1.5"/>
    </g>
    <g id="line2d_25">
     <path d="M 66.08 82.0359 
L 90.08 82.0359 
" style="fill: none; stroke-dasharray: 5.55,2.4; stroke-dashoffset: 0; stroke: #ffcff8; stroke-width: 1.5"/>
    </g>
    <g id="line2d_26">
     <g>
      <use xlink:href="#mc862ebac61" x="78.08" y="82.0359" style="fill: #ffcff8; stroke: #ffcff8"/>
     </g>
    </g>
    <g id="text_10">
     <!-- HeH+-STO-3G (PennyLane) -->
     <g transform="translate(99.68 86.2359) scale(0.12 -0.12)">
      <defs>
       <path id="Quicksand-Regular-2b" d="M 493 1946 
Q 416 1946 361 2000 
Q 307 2054 307 2138 
Q 307 2214 361 2262 
Q 416 2310 493 2310 
L 3136 2310 
Q 3213 2310 3267 2259 
Q 3322 2208 3322 2125 
Q 3322 2054 3267 2000 
Q 3213 1946 3136 1946 
L 493 1946 
z
M 1811 563 
Q 1722 563 1664 620 
Q 1606 678 1606 768 
L 1606 3475 
Q 1606 3571 1667 3628 
Q 1728 3686 1811 3686 
Q 1907 3686 1961 3628 
Q 2016 3571 2016 3482 
L 2016 768 
Q 2016 678 1958 620 
Q 1901 563 1811 563 
z
" transform="scale(0.015625)"/>
      </defs>
      <use xlink:href="#Quicksand-Regular-48"/>
      <use xlink:href="#Quicksand-Regular-65" x="71.999985"/>
      <use xlink:href="#Quicksand-Regular-48" x="128.499969"/>
      <use xlink:href="#Quicksand-Regular-2b" x="200.499954"/>
      <use xlink:href="#Quicksand-Regular-2d" x="256.699951"/>
      <use xlink:href="#Quicksand-Regular-53" x="295.699936"/>
      <use xlink:href="#Quicksand-Regular-54" x="351.899933"/>
      <use xlink:href="#Quicksand-Regular-4f" x="412.299927"/>
      <use xlink:href="#Quicksand-Regular-2d" x="488.899918"/>
      <use xlink:href="#Quicksand-Regular-33" x="527.899902"/>
      <use xlink:href="#Quicksand-Regular-47" x="580.299896"/>
      <use xlink:href="#Quicksand-Regular-20" x="649.799881"/>
      <use xlink:href="#Quicksand-Regular-28" x="677.099869"/>
      <use xlink:href="#Quicksand-Regular-50" x="714.499863"/>
      <use xlink:href="#Quicksand-Regular-65" x="774.099854"/>
      <use xlink:href="#Quicksand-Regular-6e" x="830.599838"/>
      <use xlink:href="#Quicksand-Regular-6e" x="888.399826"/>
      <use xlink:href="#Quicksand-Regular-79" x="946.199814"/>
      <use xlink:href="#Quicksand-Regular-4c" x="1002.999802"/>
      <use xlink:href="#Quicksand-Regular-61" x="1056.199799"/>
      <use xlink:href="#Quicksand-Regular-6e" x="1116.799789"/>
      <use xlink:href="#Quicksand-Regular-65" x="1174.599777"/>
      <use xlink:href="#Quicksand-Regular-29" x="1231.099762"/>
     </g>
    </g>
    <g id="LineCollection_8">
     <path d="M 78.08 105.3159 
L 78.08 93.3159 
" style="fill: none; stroke: #ff00d9; stroke-width: 1.5"/>
    </g>
    <g id="line2d_27">
     <path d="M 66.08 99.3159 
L 90.08 99.3159 
" style="fill: none; stroke: #ff00d9; stroke-width: 1.5; stroke-linecap: square"/>
    </g>
    <g id="line2d_28">
     <g>
      <use xlink:href="#m6a172c2491" x="78.08" y="99.3159" style="fill: #ff00d9; stroke: #ff00d9; stroke-linejoin: miter"/>
     </g>
    </g>
    <g id="text_11">
     <!-- HeH+-STO-3G (Catalyst) -->
     <g transform="translate(99.68 103.5159) scale(0.12 -0.12)">
      <use xlink:href="#Quicksand-Regular-48"/>
      <use xlink:href="#Quicksand-Regular-65" x="71.999985"/>
      <use xlink:href="#Quicksand-Regular-48" x="128.499969"/>
      <use xlink:href="#Quicksand-Regular-2b" x="200.499954"/>
      <use xlink:href="#Quicksand-Regular-2d" x="256.699951"/>
      <use xlink:href="#Quicksand-Regular-53" x="295.699936"/>
      <use xlink:href="#Quicksand-Regular-54" x="351.899933"/>
      <use xlink:href="#Quicksand-Regular-4f" x="412.299927"/>
      <use xlink:href="#Quicksand-Regular-2d" x="488.899918"/>
      <use xlink:href="#Quicksand-Regular-33" x="527.899902"/>
      <use xlink:href="#Quicksand-Regular-47" x="580.299896"/>
      <use xlink:href="#Quicksand-Regular-20" x="649.799881"/>
      <use xlink:href="#Quicksand-Regular-28" x="677.099869"/>
      <use xlink:href="#Quicksand-Regular-43" x="714.499863"/>
      <use xlink:href="#Quicksand-Regular-61" x="779.79985"/>
      <use xlink:href="#Quicksand-Regular-74" x="840.399841"/>
      <use xlink:href="#Quicksand-Regular-61" x="874.299835"/>
      <use xlink:href="#Quicksand-Regular-6c" x="934.899826"/>
      <use xlink:href="#Quicksand-Regular-79" x="957.899811"/>
      <use xlink:href="#Quicksand-Regular-73" x="1014.699799"/>
      <use xlink:href="#Quicksand-Regular-74" x="1061.599792"/>
      <use xlink:href="#Quicksand-Regular-29" x="1095.499786"/>
     </g>
    </g>
   </g>
  </g>
  <g id="axes_2">
   <g id="patch_7">
    <path d="M 55.28 408.76 
L 445.68 408.76 
L 445.68 315.005 
L 55.28 315.005 
z
" style="fill: #ffffff"/>
   </g>
   <g id="matplotlib.axis_3">
    <g id="xtick_12">
     <g id="line2d_29">
      <g>
       <use xlink:href="#m4fb533bd4d" x="65.782412" y="408.76" style="stroke: #000000; stroke-width: 0.8"/>
      </g>
     </g>
     <g id="text_12">
      <!-- 0 -->
      <g transform="translate(61.617412 426.12) scale(0.14 -0.14)">
       <use xlink:href="#Quicksand-Regular-30"/>
      </g>
     </g>
    </g>
    <g id="xtick_13">
     <g id="line2d_30">
      <g>
       <use xlink:href="#m4fb533bd4d" x="101.997625" y="408.76" style="stroke: #000000; stroke-width: 0.8"/>
      </g>
     </g>
     <g id="text_13">
      <!-- 50 -->
      <g transform="translate(94.017625 426.12) scale(0.14 -0.14)">
       <defs>
        <path id="Quicksand-Regular-35" d="M 1498 -13 
Q 1235 -13 969 73 
Q 704 160 499 333 
Q 461 365 438 409 
Q 416 454 416 499 
Q 416 563 467 624 
Q 518 685 602 685 
Q 672 685 742 627 
Q 909 499 1104 428 
Q 1299 358 1498 358 
Q 1875 358 2156 502 
Q 2438 646 2592 912 
Q 2746 1178 2746 1530 
Q 2746 1856 2605 2096 
Q 2464 2336 2205 2473 
Q 1946 2611 1594 2611 
Q 1363 2611 1174 2540 
Q 986 2470 848 2396 
Q 710 2323 627 2323 
Q 550 2323 502 2361 
Q 454 2400 438 2457 
Q 422 2515 435 2579 
L 710 4288 
Q 717 4346 771 4394 
Q 826 4442 909 4442 
L 2835 4442 
Q 2912 4442 2966 4387 
Q 3021 4333 3021 4256 
Q 3021 4173 2966 4118 
Q 2912 4064 2835 4064 
L 998 4064 
L 1056 4122 
L 794 2605 
L 678 2688 
Q 762 2752 918 2816 
Q 1075 2880 1270 2928 
Q 1466 2976 1683 2976 
Q 2099 2976 2425 2793 
Q 2752 2611 2941 2288 
Q 3130 1965 3130 1542 
Q 3130 1075 2928 726 
Q 2726 378 2361 182 
Q 1997 -13 1498 -13 
z
" transform="scale(0.015625)"/>
       </defs>
       <use xlink:href="#Quicksand-Regular-35"/>
       <use xlink:href="#Quicksand-Regular-30" x="54.499985"/>
      </g>
     </g>
    </g>
    <g id="xtick_14">
     <g id="line2d_31">
      <g>
       <use xlink:href="#m4fb533bd4d" x="138.212839" y="408.76" style="stroke: #000000; stroke-width: 0.8"/>
      </g>
     </g>
     <g id="text_14">
      <!-- 100 -->
      <g transform="translate(127.292839 426.12) scale(0.14 -0.14)">
       <defs>
        <path id="Quicksand-Regular-31" d="M 1446 0 
Q 1357 0 1299 57 
Q 1242 115 1242 192 
L 1242 4045 
L 1312 3981 
L 461 3411 
Q 410 3373 352 3373 
Q 275 3373 214 3437 
Q 154 3501 154 3578 
Q 154 3680 256 3738 
L 1325 4448 
Q 1363 4474 1404 4480 
Q 1446 4486 1478 4480 
Q 1562 4474 1606 4419 
Q 1651 4365 1651 4288 
L 1651 192 
Q 1651 115 1593 57 
Q 1536 0 1446 0 
z
" transform="scale(0.015625)"/>
       </defs>
       <use xlink:href="#Quicksand-Regular-31"/>
       <use xlink:href="#Quicksand-Regular-30" x="36.999985"/>
       <use xlink:href="#Quicksand-Regular-30" x="96.499969"/>
      </g>
     </g>
    </g>
    <g id="xtick_15">
     <g id="line2d_32">
      <g>
       <use xlink:href="#m4fb533bd4d" x="174.428052" y="408.76" style="stroke: #000000; stroke-width: 0.8"/>
      </g>
     </g>
     <g id="text_15">
      <!-- 150 -->
      <g transform="translate(163.858052 426.12) scale(0.14 -0.14)">
       <use xlink:href="#Quicksand-Regular-31"/>
       <use xlink:href="#Quicksand-Regular-35" x="36.999985"/>
       <use xlink:href="#Quicksand-Regular-30" x="91.499969"/>
      </g>
     </g>
    </g>
    <g id="xtick_16">
     <g id="line2d_33">
      <g>
       <use xlink:href="#m4fb533bd4d" x="210.643265" y="408.76" style="stroke: #000000; stroke-width: 0.8"/>
      </g>
     </g>
     <g id="text_16">
      <!-- 200 -->
      <g transform="translate(198.434828 426.12) scale(0.14 -0.14)">
       <use xlink:href="#Quicksand-Regular-32"/>
       <use xlink:href="#Quicksand-Regular-30" x="55.399994"/>
       <use xlink:href="#Quicksand-Regular-30" x="114.899979"/>
      </g>
     </g>
    </g>
    <g id="xtick_17">
     <g id="line2d_34">
      <g>
       <use xlink:href="#m4fb533bd4d" x="246.858479" y="408.76" style="stroke: #000000; stroke-width: 0.8"/>
      </g>
     </g>
     <g id="text_17">
      <!-- 250 -->
      <g transform="translate(235.000041 426.12) scale(0.14 -0.14)">
       <use xlink:href="#Quicksand-Regular-32"/>
       <use xlink:href="#Quicksand-Regular-35" x="55.399994"/>
       <use xlink:href="#Quicksand-Regular-30" x="109.899979"/>
      </g>
     </g>
    </g>
    <g id="xtick_18">
     <g id="line2d_35">
      <g>
       <use xlink:href="#m4fb533bd4d" x="283.073692" y="408.76" style="stroke: #000000; stroke-width: 0.8"/>
      </g>
     </g>
     <g id="text_18">
      <!-- 300 -->
      <g transform="translate(271.075255 426.12) scale(0.14 -0.14)">
       <use xlink:href="#Quicksand-Regular-33"/>
       <use xlink:href="#Quicksand-Regular-30" x="52.399994"/>
       <use xlink:href="#Quicksand-Regular-30" x="111.899979"/>
      </g>
     </g>
    </g>
    <g id="xtick_19">
     <g id="line2d_36">
      <g>
       <use xlink:href="#m4fb533bd4d" x="319.288905" y="408.76" style="stroke: #000000; stroke-width: 0.8"/>
      </g>
     </g>
     <g id="text_19">
      <!-- 350 -->
      <g transform="translate(307.640468 426.12) scale(0.14 -0.14)">
       <use xlink:href="#Quicksand-Regular-33"/>
       <use xlink:href="#Quicksand-Regular-35" x="52.399994"/>
       <use xlink:href="#Quicksand-Regular-30" x="106.899979"/>
      </g>
     </g>
    </g>
    <g id="xtick_20">
     <g id="line2d_37">
      <g>
       <use xlink:href="#m4fb533bd4d" x="355.504119" y="408.76" style="stroke: #000000; stroke-width: 0.8"/>
      </g>
     </g>
     <g id="text_20">
      <!-- 400 -->
      <g transform="translate(343.4849 426.12) scale(0.14 -0.14)">
       <use xlink:href="#Quicksand-Regular-34"/>
       <use xlink:href="#Quicksand-Regular-30" x="52.699997"/>
       <use xlink:href="#Quicksand-Regular-30" x="112.199982"/>
      </g>
     </g>
    </g>
    <g id="xtick_21">
     <g id="line2d_38">
      <g>
       <use xlink:href="#m4fb533bd4d" x="391.719332" y="408.76" style="stroke: #000000; stroke-width: 0.8"/>
      </g>
     </g>
     <g id="text_21">
      <!-- 450 -->
      <g transform="translate(380.050113 426.12) scale(0.14 -0.14)">
       <use xlink:href="#Quicksand-Regular-34"/>
       <use xlink:href="#Quicksand-Regular-35" x="52.699997"/>
       <use xlink:href="#Quicksand-Regular-30" x="107.199982"/>
      </g>
     </g>
    </g>
    <g id="xtick_22">
     <g id="line2d_39">
      <g>
       <use xlink:href="#m4fb533bd4d" x="427.934545" y="408.76" style="stroke: #000000; stroke-width: 0.8"/>
      </g>
     </g>
     <g id="text_22">
      <!-- 500 -->
      <g transform="translate(415.789545 426.12) scale(0.14 -0.14)">
       <use xlink:href="#Quicksand-Regular-35"/>
       <use xlink:href="#Quicksand-Regular-30" x="54.499985"/>
       <use xlink:href="#Quicksand-Regular-30" x="113.999969"/>
      </g>
     </g>
    </g>
    <g id="text_23">
     <!-- Number of Iterations -->
     <g transform="translate(183.110469 443.28) scale(0.14 -0.14)">
      <defs>
       <path id="Quicksand-Regular-4e" d="M 3878 4480 
Q 3962 4480 4010 4429 
Q 4058 4378 4058 4301 
L 4058 205 
Q 4058 109 3997 54 
Q 3936 0 3859 0 
Q 3821 0 3776 16 
Q 3731 32 3706 64 
L 851 3910 
L 960 3968 
L 960 173 
Q 960 102 909 51 
Q 858 0 781 0 
Q 698 0 650 51 
Q 602 102 602 173 
L 602 4288 
Q 602 4384 659 4432 
Q 717 4480 787 4480 
Q 826 4480 870 4464 
Q 915 4448 941 4410 
L 3763 608 
L 3699 493 
L 3699 4301 
Q 3699 4378 3753 4429 
Q 3808 4480 3878 4480 
z
" transform="scale(0.015625)"/>
       <path id="Quicksand-Regular-62" d="M 2061 3347 
Q 2496 3347 2832 3129 
Q 3168 2912 3366 2531 
Q 3565 2150 3565 1651 
Q 3565 1165 3366 774 
Q 3168 384 2829 160 
Q 2490 -64 2067 -64 
Q 1843 -64 1641 6 
Q 1440 77 1273 195 
Q 1107 314 979 474 
Q 851 634 774 819 
L 890 902 
L 890 179 
Q 890 96 835 41 
Q 781 -13 698 -13 
Q 614 -13 560 41 
Q 506 96 506 179 
L 506 4538 
Q 506 4621 557 4675 
Q 608 4730 698 4730 
Q 781 4730 835 4675 
Q 890 4621 890 4538 
L 890 2394 
L 800 2445 
Q 864 2643 989 2806 
Q 1114 2970 1280 3091 
Q 1446 3213 1644 3280 
Q 1843 3347 2061 3347 
z
M 2029 2989 
Q 1683 2989 1420 2816 
Q 1158 2643 1008 2342 
Q 858 2042 858 1651 
Q 858 1267 1008 956 
Q 1158 646 1420 470 
Q 1683 294 2029 294 
Q 2368 294 2627 473 
Q 2886 653 3040 963 
Q 3194 1274 3194 1651 
Q 3194 2042 3040 2342 
Q 2886 2643 2627 2816 
Q 2368 2989 2029 2989 
z
" transform="scale(0.015625)"/>
       <path id="Quicksand-Regular-66" d="M 1690 4710 
Q 1786 4710 1898 4691 
Q 2010 4672 2093 4624 
Q 2176 4576 2176 4480 
Q 2176 4410 2125 4355 
Q 2074 4301 2010 4301 
Q 1946 4301 1850 4336 
Q 1754 4371 1645 4371 
Q 1510 4371 1414 4310 
Q 1318 4250 1267 4138 
Q 1216 4026 1216 3866 
L 1216 192 
Q 1216 115 1161 57 
Q 1107 0 1024 0 
Q 941 0 886 57 
Q 832 115 832 192 
L 832 3866 
Q 832 4275 1072 4492 
Q 1312 4710 1690 4710 
z
M 1933 3206 
Q 2010 3206 2061 3155 
Q 2112 3104 2112 3027 
Q 2112 2950 2061 2899 
Q 2010 2848 1933 2848 
L 365 2848 
Q 294 2848 240 2902 
Q 186 2957 186 3027 
Q 186 3110 240 3158 
Q 294 3206 365 3206 
L 1933 3206 
z
" transform="scale(0.015625)"/>
       <path id="Quicksand-Regular-49" d="M 1005 198 
Q 998 115 937 57 
Q 877 0 800 0 
Q 710 0 656 57 
Q 602 115 602 198 
L 602 4282 
Q 602 4365 659 4422 
Q 717 4480 806 4480 
Q 883 4480 944 4422 
Q 1005 4365 1005 4282 
L 1005 198 
z
" transform="scale(0.015625)"/>
      </defs>
      <use xlink:href="#Quicksand-Regular-4e"/>
      <use xlink:href="#Quicksand-Regular-75" x="72.799988"/>
      <use xlink:href="#Quicksand-Regular-6d" x="129.699982"/>
      <use xlink:href="#Quicksand-Regular-62" x="220.899963"/>
      <use xlink:href="#Quicksand-Regular-65" x="281.499954"/>
      <use xlink:href="#Quicksand-Regular-72" x="337.999939"/>
      <use xlink:href="#Quicksand-Regular-20" x="376.499924"/>
      <use xlink:href="#Quicksand-Regular-6f" x="403.799911"/>
      <use xlink:href="#Quicksand-Regular-66" x="464.199905"/>
      <use xlink:href="#Quicksand-Regular-20" x="500.19989"/>
      <use xlink:href="#Quicksand-Regular-49" x="527.499878"/>
      <use xlink:href="#Quicksand-Regular-74" x="552.499863"/>
      <use xlink:href="#Quicksand-Regular-65" x="586.399857"/>
      <use xlink:href="#Quicksand-Regular-72" x="642.899841"/>
      <use xlink:href="#Quicksand-Regular-61" x="681.399826"/>
      <use xlink:href="#Quicksand-Regular-74" x="741.999817"/>
      <use xlink:href="#Quicksand-Regular-69" x="775.899811"/>
      <use xlink:href="#Quicksand-Regular-6f" x="797.299805"/>
      <use xlink:href="#Quicksand-Regular-6e" x="857.699799"/>
      <use xlink:href="#Quicksand-Regular-73" x="915.499786"/>
     </g>
    </g>
   </g>
   <g id="matplotlib.axis_4">
    <g id="ytick_6">
     <g id="line2d_40">
      <path d="M 55.28 406.509791 
L 445.68 406.509791 
" clip-path="url(#p5a03ac16a3)" style="fill: none; stroke: #b0b0b0; stroke-width: 0.8; stroke-linecap: square"/>
     </g>
     <g id="line2d_41">
      <g>
       <use xlink:href="#m41e3134f19" x="55.28" y="406.509791" style="stroke: #000000; stroke-width: 0.8"/>
      </g>
     </g>
     <g id="text_24">
      <!-- 0 -->
      <g transform="translate(39.95 411.689791) scale(0.14 -0.14)">
       <use xlink:href="#Quicksand-Regular-30"/>
      </g>
     </g>
    </g>
    <g id="ytick_7">
     <g id="line2d_42">
      <path d="M 55.28 365.729483 
L 445.68 365.729483 
" clip-path="url(#p5a03ac16a3)" style="fill: none; stroke: #b0b0b0; stroke-width: 0.8; stroke-linecap: square"/>
     </g>
     <g id="line2d_43">
      <g>
       <use xlink:href="#m41e3134f19" x="55.28" y="365.729483" style="stroke: #000000; stroke-width: 0.8"/>
      </g>
     </g>
     <g id="text_25">
      <!-- 10 -->
      <g transform="translate(34.77 370.909483) scale(0.14 -0.14)">
       <use xlink:href="#Quicksand-Regular-31"/>
       <use xlink:href="#Quicksand-Regular-30" x="36.999985"/>
      </g>
     </g>
    </g>
    <g id="ytick_8">
     <g id="line2d_44">
      <path d="M 55.28 324.949176 
L 445.68 324.949176 
" clip-path="url(#p5a03ac16a3)" style="fill: none; stroke: #b0b0b0; stroke-width: 0.8; stroke-linecap: square"/>
     </g>
     <g id="line2d_45">
      <g>
       <use xlink:href="#m41e3134f19" x="55.28" y="324.949176" style="stroke: #000000; stroke-width: 0.8"/>
      </g>
     </g>
     <g id="text_26">
      <!-- 20 -->
      <g transform="translate(32.193125 330.129176) scale(0.14 -0.14)">
       <use xlink:href="#Quicksand-Regular-32"/>
       <use xlink:href="#Quicksand-Regular-30" x="55.399994"/>
      </g>
     </g>
    </g>
    <g id="text_27">
     <!-- Speedup Factor -->
     <g transform="translate(25.393125 413.471406) rotate(-90) scale(0.14 -0.14)">
      <defs>
       <path id="Quicksand-Regular-70" d="M 2061 3296 
Q 2496 3296 2832 3081 
Q 3168 2867 3366 2492 
Q 3565 2118 3565 1632 
Q 3565 1146 3366 768 
Q 3168 390 2829 172 
Q 2490 -45 2067 -45 
Q 1843 -45 1641 22 
Q 1440 90 1273 205 
Q 1107 320 979 477 
Q 851 634 774 819 
L 890 902 
L 890 -1088 
Q 890 -1165 835 -1222 
Q 781 -1280 698 -1280 
Q 614 -1280 560 -1222 
Q 506 -1165 506 -1088 
L 506 3085 
Q 506 3168 557 3225 
Q 608 3283 698 3283 
Q 781 3283 835 3225 
Q 890 3168 890 3085 
L 890 2394 
L 800 2445 
Q 864 2643 989 2800 
Q 1114 2957 1280 3069 
Q 1446 3181 1644 3238 
Q 1843 3296 2061 3296 
z
M 2029 2938 
Q 1683 2938 1420 2768 
Q 1158 2598 1008 2307 
Q 858 2016 858 1632 
Q 858 1254 1008 953 
Q 1158 653 1420 483 
Q 1683 314 2029 314 
Q 2368 314 2627 483 
Q 2886 653 3040 953 
Q 3194 1254 3194 1632 
Q 3194 2010 3040 2304 
Q 2886 2598 2627 2768 
Q 2368 2938 2029 2938 
z
" transform="scale(0.015625)"/>
       <path id="Quicksand-Regular-64" d="M 3187 4736 
Q 3270 4736 3324 4681 
Q 3379 4627 3379 4544 
L 3379 192 
Q 3379 115 3321 57 
Q 3264 0 3187 0 
Q 3104 0 3049 57 
Q 2995 115 2995 192 
L 2995 954 
L 3104 1043 
Q 3104 864 3008 669 
Q 2912 474 2736 307 
Q 2560 141 2326 38 
Q 2093 -64 1824 -64 
Q 1395 -64 1052 160 
Q 710 384 512 768 
Q 314 1152 314 1645 
Q 314 2131 512 2518 
Q 710 2906 1049 3126 
Q 1389 3347 1818 3347 
Q 2080 3347 2317 3251 
Q 2554 3155 2736 2988 
Q 2918 2822 3024 2608 
Q 3130 2394 3130 2163 
L 2995 2259 
L 2995 4544 
Q 2995 4621 3049 4678 
Q 3104 4736 3187 4736 
z
M 1856 294 
Q 2202 294 2461 470 
Q 2720 646 2870 950 
Q 3021 1254 3021 1645 
Q 3021 2029 2870 2333 
Q 2720 2637 2457 2813 
Q 2195 2989 1856 2989 
Q 1523 2989 1257 2813 
Q 992 2637 841 2333 
Q 691 2029 691 1645 
Q 691 1261 841 953 
Q 992 646 1257 470 
Q 1523 294 1856 294 
z
" transform="scale(0.015625)"/>
       <path id="Quicksand-Regular-46" d="M 800 0 
Q 710 0 656 57 
Q 602 115 602 192 
L 602 4288 
Q 602 4365 659 4422 
Q 717 4480 794 4480 
L 3123 4480 
Q 3206 4480 3260 4425 
Q 3315 4371 3315 4288 
Q 3315 4211 3260 4156 
Q 3206 4102 3123 4102 
L 966 4102 
L 992 4141 
L 992 2438 
L 960 2496 
L 2835 2496 
Q 2918 2496 2972 2441 
Q 3027 2387 3027 2310 
Q 3027 2227 2972 2176 
Q 2918 2125 2835 2125 
L 947 2125 
L 992 2176 
L 992 192 
Q 992 115 937 57 
Q 883 0 800 0 
z
" transform="scale(0.015625)"/>
       <path id="Quicksand-Regular-63" d="M 1946 3347 
Q 2253 3347 2509 3280 
Q 2765 3213 2921 3097 
Q 3078 2982 3078 2848 
Q 3078 2784 3033 2723 
Q 2989 2662 2912 2662 
Q 2835 2662 2787 2700 
Q 2739 2739 2691 2790 
Q 2643 2842 2554 2886 
Q 2470 2925 2316 2957 
Q 2163 2989 1965 2989 
Q 1606 2989 1318 2809 
Q 1030 2630 864 2326 
Q 698 2022 698 1645 
Q 698 1261 858 953 
Q 1018 646 1299 470 
Q 1581 294 1958 294 
Q 2214 294 2355 339 
Q 2496 384 2598 442 
Q 2720 512 2774 579 
Q 2829 646 2918 646 
Q 3002 646 3043 598 
Q 3085 550 3085 474 
Q 3085 371 2934 246 
Q 2784 122 2521 29 
Q 2259 -64 1920 -64 
Q 1440 -64 1078 160 
Q 717 384 515 771 
Q 314 1158 314 1645 
Q 314 2112 518 2496 
Q 723 2880 1091 3113 
Q 1459 3347 1946 3347 
z
" transform="scale(0.015625)"/>
      </defs>
      <use xlink:href="#Quicksand-Regular-53"/>
      <use xlink:href="#Quicksand-Regular-70" x="56.199997"/>
      <use xlink:href="#Quicksand-Regular-65" x="116.799988"/>
      <use xlink:href="#Quicksand-Regular-65" x="173.299973"/>
      <use xlink:href="#Quicksand-Regular-64" x="229.799957"/>
      <use xlink:href="#Quicksand-Regular-75" x="290.399948"/>
      <use xlink:href="#Quicksand-Regular-70" x="347.299942"/>
      <use xlink:href="#Quicksand-Regular-20" x="407.899933"/>
      <use xlink:href="#Quicksand-Regular-46" x="435.199921"/>
      <use xlink:href="#Quicksand-Regular-61" x="491.799911"/>
      <use xlink:href="#Quicksand-Regular-63" x="552.399902"/>
      <use xlink:href="#Quicksand-Regular-74" x="604.19989"/>
      <use xlink:href="#Quicksand-Regular-6f" x="638.099884"/>
      <use xlink:href="#Quicksand-Regular-72" x="698.499878"/>
     </g>
    </g>
   </g>
   <g id="patch_8">
    <path d="M 55.28 408.76 
L 55.28 315.005 
" style="fill: none; stroke: #000000; stroke-width: 0.8; stroke-linejoin: miter; stroke-linecap: square"/>
   </g>
   <g id="patch_9">
    <path d="M 445.68 408.76 
L 445.68 315.005 
" style="fill: none; stroke: #000000; stroke-width: 0.8; stroke-linejoin: miter; stroke-linecap: square"/>
   </g>
   <g id="patch_10">
    <path d="M 55.28 408.76 
L 445.68 408.76 
" style="fill: none; stroke: #000000; stroke-width: 0.8; stroke-linejoin: miter; stroke-linecap: square"/>
   </g>
   <g id="patch_11">
    <path d="M 55.28 315.005 
L 445.68 315.005 
" style="fill: none; stroke: #000000; stroke-width: 0.8; stroke-linejoin: miter; stroke-linecap: square"/>
   </g>
   <g id="line2d_46">
    <path d="M 73.025455 404.498409 
L 101.997625 394.20857 
L 138.212839 389.637568 
L 210.643265 369.835139 
L 283.073692 319.266591 
L 355.504119 342.800834 
L 427.934545 332.667163 
" clip-path="url(#p5a03ac16a3)" style="fill: none; stroke: #00b1ff; stroke-width: 1.5; stroke-linecap: square"/>
    <defs>
     <path id="me5ba0e5d70" d="M 0 3 
C 0.795609 3 1.55874 2.683901 2.12132 2.12132 
C 2.683901 1.55874 3 0.795609 3 0 
C 3 -0.795609 2.683901 -1.55874 2.12132 -2.12132 
C 1.55874 -2.683901 0.795609 -3 0 -3 
C -0.795609 -3 -1.55874 -2.683901 -2.12132 -2.12132 
C -2.683901 -1.55874 -3 -0.795609 -3 0 
C -3 0.795609 -2.683901 1.55874 -2.12132 2.12132 
C -1.55874 2.683901 -0.795609 3 0 3 
z
" style="stroke: #00b1ff"/>
    </defs>
    <g clip-path="url(#p5a03ac16a3)">
     <use xlink:href="#me5ba0e5d70" x="73.025455" y="404.498409" style="fill: #00b1ff; stroke: #00b1ff"/>
     <use xlink:href="#me5ba0e5d70" x="101.997625" y="394.20857" style="fill: #00b1ff; stroke: #00b1ff"/>
     <use xlink:href="#me5ba0e5d70" x="138.212839" y="389.637568" style="fill: #00b1ff; stroke: #00b1ff"/>
     <use xlink:href="#me5ba0e5d70" x="210.643265" y="369.835139" style="fill: #00b1ff; stroke: #00b1ff"/>
     <use xlink:href="#me5ba0e5d70" x="283.073692" y="319.266591" style="fill: #00b1ff; stroke: #00b1ff"/>
     <use xlink:href="#me5ba0e5d70" x="355.504119" y="342.800834" style="fill: #00b1ff; stroke: #00b1ff"/>
     <use xlink:href="#me5ba0e5d70" x="427.934545" y="332.667163" style="fill: #00b1ff; stroke: #00b1ff"/>
    </g>
   </g>
   <g id="line2d_47">
    <path d="M 73.025455 404.315573 
L 101.997625 396.523199 
L 138.212839 382.812472 
L 210.643265 361.252241 
L 283.073692 374.649439 
L 355.504119 365.162738 
L 427.934545 347.929556 
" clip-path="url(#p5a03ac16a3)" style="fill: none; stroke: #ff00d9; stroke-width: 1.5; stroke-linecap: square"/>
    <defs>
     <path id="m4e60f92845" d="M 0 3 
C 0.795609 3 1.55874 2.683901 2.12132 2.12132 
C 2.683901 1.55874 3 0.795609 3 0 
C 3 -0.795609 2.683901 -1.55874 2.12132 -2.12132 
C 1.55874 -2.683901 0.795609 -3 0 -3 
C -0.795609 -3 -1.55874 -2.683901 -2.12132 -2.12132 
C -2.683901 -1.55874 -3 -0.795609 -3 0 
C -3 0.795609 -2.683901 1.55874 -2.12132 2.12132 
C -1.55874 2.683901 -0.795609 3 0 3 
z
" style="stroke: #ff00d9"/>
    </defs>
    <g clip-path="url(#p5a03ac16a3)">
     <use xlink:href="#m4e60f92845" x="73.025455" y="404.315573" style="fill: #ff00d9; stroke: #ff00d9"/>
     <use xlink:href="#m4e60f92845" x="101.997625" y="396.523199" style="fill: #ff00d9; stroke: #ff00d9"/>
     <use xlink:href="#m4e60f92845" x="138.212839" y="382.812472" style="fill: #ff00d9; stroke: #ff00d9"/>
     <use xlink:href="#m4e60f92845" x="210.643265" y="361.252241" style="fill: #ff00d9; stroke: #ff00d9"/>
     <use xlink:href="#m4e60f92845" x="283.073692" y="374.649439" style="fill: #ff00d9; stroke: #ff00d9"/>
     <use xlink:href="#m4e60f92845" x="355.504119" y="365.162738" style="fill: #ff00d9; stroke: #ff00d9"/>
     <use xlink:href="#m4e60f92845" x="427.934545" y="347.929556" style="fill: #ff00d9; stroke: #ff00d9"/>
    </g>
   </g>
  </g>
 </g>
 <defs>
  <clipPath id="p1b94d0107a">
   <rect x="55.28" y="15.12" width="390.4" height="281.265"/>
  </clipPath>
  <clipPath id="p5a03ac16a3">
   <rect x="55.28" y="315.005" width="390.4" height="93.755"/>
  </clipPath>
 </defs>
</svg>
